<svg width="1914.999" xmlns="http://www.w3.org/2000/svg" height="923" id="screenshot-96ab3c53-ded4-806c-8007-5ec7a0e5c494" viewBox="0 0 1914.999 923" xmlns:xlink="http://www.w3.org/1999/xlink" fill="none" version="1.1"><g id="shape-96ab3c53-ded4-806c-8007-5ec7a0e5c494" rx="0" ry="0" style="fill: rgb(0, 0, 0);"><g id="shape-96ab3c53-ded4-806c-8007-5ec7a0e5c495"><defs><linearGradient id="fill-color-gradient-render-2-0" x1="0.5" y1="0" x2="0.5" y2="1" gradientTransform=""><stop offset="0" stop-color="#010b11" stop-opacity="1"/><stop offset="1" stop-color="#03f8c5" stop-opacity="1"/></linearGradient><pattern patternUnits="userSpaceOnUse" x="731.4189025386195" y="0.2098843247977129" width="1183.5803022576001" height="611.3457563110542" patternTransform="matrix(1.000000, 0.000000, 0.000000, 1.000000, 0.000000, 0.000000)" id="fill-0-render-2"><g><rect width="1183.5803022576001" height="611.3457563110542" style="fill: url(&quot;#fill-color-gradient-render-2-0&quot;);"/></g></pattern></defs><g class="fills" id="fills-96ab3c53-ded4-806c-8007-5ec7a0e5c495"><path d="M1914.9991455078125,398.63916015625C1902.2315673828125,410.47265625,1884.4608154296875,417.58154296875,1865.0836181640625,422.4775390625C1831.1519775390625,431.048828125,1793.1092529296875,434.08642578125,1758.2174072265625,441.64453125C1694.5677490234375,455.4326171875,1638.0003662109375,484.2236328125,1569.2218017578125,478.7109375C1547.1275634765625,476.9404296875,1524.0010986328125,471.64404296875,1501.8079833984375,470.6728515625C1426.9615478515625,467.3896484375,1369.4754638671875,490.00927734375,1299.1890869140625,501.81103515625C1239.7403564453125,511.7939453125,1175.5728759765625,509.70703125,1120.0645751953125,527.31689453125C1081.5281982421875,539.54248046875,1046.8848876953125,559.77099609375,1009.1593627929688,571.4951171875C958.0646362304688,587.37451171875,948.1456909179688,567.66455078125,907.1347045898438,569.83544921875C866.8869018554688,571.96484375,834.0563354492188,603.6591796875,788.1056518554688,609.94580078125C728.0763549804688,618.15869140625,725.8800659179688,594.009765625,736.0714721679688,558.82470703125C743.4650268554688,533.2998046875,752.6989135742188,511.41650390625,755.6373901367188,484.6728515625C759.9098510742188,445.783203125,752.6510620117188,405.60791015625,755.5983276367188,367.51953125C760.1464233398438,308.73779296875,809.5206909179688,302.0458984375,860.9562377929688,268.87890625C906.5573120117188,239.4736328125,920.5006713867188,202.255859375,953.5856323242188,167.345703125C984.8329467773438,134.3740234375,1046.1368408203125,99.36328125,1102.9913330078125,96.0341796875C1135.3306884765625,94.1396484375,1168.7205810546875,103.56884765625,1200.4588623046875,107.3466796875C1327.7525634765625,122.49853515625,1438.6788330078125,69.3447265625,1540.6258544921875,23.111328125C1549.7579345703125,18.97021484375,1585.6192626953125,1.7353515625,1593.0308837890625,0.62158203125C1595.0177001953125,0.32373046875,1602.3756103515625,-0.40625,1603.3358154296875,1.3056640625C1565.4937744140625,14.46044921875,1531.7418212890625,32.79833984375,1496.0328369140625,48.5419921875C1417.0870361328125,83.34716796875,1315.0714111328125,119.599609375,1220.0245361328125,113.02734375C1146.9014892578125,107.97216796875,1116.3843994140625,85.13427734375,1041.5347900390625,114.6826171875C934.8781127929688,156.78564453125,938.7741088867188,226.37744140625,858.4669799804688,275.1845703125C807.8898315429688,305.9248046875,764.8383178710938,313.91259765625,760.5892944335938,369.31982421875C757.8068237304688,405.603515625,764.4462280273438,443.912109375,760.6281127929688,481.06689453125C757.4953002929688,511.54443359375,746.3795776367188,538.439453125,739.8117065429688,567.830078125C736.3048706054688,583.525390625,733.8930053710938,604.2275390625,762.6449584960938,606.6611328125C829.6520385742188,612.3330078125,859.0231323242188,561.056640625,924.4086303710938,565.4306640625C938.6813354492188,566.384765625,953.1605834960938,571.62060546875,966.9723510742188,572.50830078125C1010.3532104492188,575.2958984375,1060.5469970703125,543.7822265625,1098.8502197265625,530.001953125C1164.2442626953125,506.478515625,1225.3687744140625,510.2880859375,1294.2010498046875,499.10498046875C1359.2181396484375,488.541015625,1423.0057373046875,464.44677734375,1490.5814208984375,466.1728515625C1538.6778564453125,467.40234375,1577.0736083984375,480.59912109375,1626.8067626953125,472.8037109375C1665.8785400390625,466.6806640625,1706.6234130859375,449.8232421875,1745.7281494140625,440.7275390625C1789.1895751953125,430.61669921875,1877.0672607421875,424.25439453125,1905.6666259765625,400.45361328125C1909.1014404296875,397.5947265625,1911.2769775390625,393.97607421875,1914.9991455078125,391.43359375L1914.9991455078125,398.6416015625Z" fill="url(#fill-0-render-2)"/></g></g><g id="shape-96ab3c53-ded4-806c-8007-5ec7a0e5c496"><defs><linearGradient id="fill-color-gradient-render-3-0" x1="0.5" y1="0" x2="0.5" y2="1" gradientTransform=""><stop offset="0" stop-color="#010b11" stop-opacity="1"/><stop offset="1" stop-color="#03f8c5" stop-opacity="1"/></linearGradient><pattern patternUnits="userSpaceOnUse" x="655.7576643732932" y="0.3594451016097082" width="531.2243510155781" height="922.6343068322121" patternTransform="matrix(1.000000, 0.000000, 0.000000, 1.000000, 0.000000, 0.000000)" id="fill-0-render-3"><g><rect width="531.2243510155781" height="922.6343068322121" style="fill: url(&quot;#fill-color-gradient-render-3-0&quot;);"/></g></pattern></defs><g class="fills" id="fills-96ab3c53-ded4-806c-8007-5ec7a0e5c496"><path d="M1178.2537841796875,922.99365234375C1175.5997314453125,918.9453125,1169.2291259765625,914.77490234375,1164.5587158203125,911.71875C1088.3953857421875,861.87890625,1009.4406127929688,869.36572265625,921.7365112304688,845.755859375C822.3839721679688,819.01025390625,873.4157104492188,748.02587890625,887.1828002929688,695.060546875C893.1671752929688,672.0361328125,892.1886596679688,650.51806640625,851.0402221679688,652.72021484375C803.3297729492188,655.275390625,758.6144409179688,679.43896484375,707.0592651367188,664.853515625C657.2091674804688,650.7529296875,646.0873413085938,614.10791015625,663.3851928710938,580.16259765625C678.4298706054688,550.63720703125,698.4567260742188,531.06982421875,707.8939819335938,497.9091796875C725.1647338867188,437.2392578125,700.3536987304688,406.8037109375,678.0377807617188,352.47509765625C643.3522338867188,268.0400390625,773.2282104492188,274.796875,835.4567260742188,236.02685546875C882.9098510742188,206.4638671875,894.1605834960938,163.72265625,926.6766967773438,127.16796875C945.1832885742188,106.36328125,968.8424682617188,92.19287109375,989.9855346679688,73.81689453125C1016.6007690429688,50.681640625,1023.8507690429688,29.916015625,1011.2150268554688,0.41796875L1017.9325561523438,0.359375C1022.4264526367188,12.83251953125,1028.4588623046875,27.31494140625,1024.3446044921875,40.087890625C1014.5722045898438,70.43115234375,962.3046264648438,97.7646484375,936.6256713867188,123.54736328125C894.7648315429688,165.57958984375,887.4042358398438,215.71484375,823.3654174804688,247.10888671875C787.8930053710938,264.4970703125,741.9899291992188,269.671875,707.3854370117188,287.6201171875C650.7252807617188,317.0087890625,688.8453979492188,356.7353515625,703.6300659179688,393.44140625C724.7579956054688,445.896484375,723.0165405273438,492.0146484375,693.5404663085938,542.494140625C675.9464721679688,572.6279296875,646.8742065429688,597.044921875,667.7868041992188,631.9716796875C689.2616577148438,667.83642578125,743.5219116210938,667.65185546875,788.8534545898438,660.03076171875C828.1886596679688,653.4169921875,901.5514526367188,627.5166015625,896.5065307617188,681.0751953125C892.4581909179688,724.046875,840.6930541992188,786.330078125,886.5783081054688,825.21923828125C916.0097045898438,850.16552734375,1010.7511596679688,856.6787109375,1055.1102294921875,865.587890625C1106.1270751953125,875.8330078125,1152.6107177734375,893.3740234375,1186.9820556640625,922.99169921875L1178.2569580078125,922.99169921875Z" fill="url(#fill-0-render-3)"/></g></g><g id="shape-96ab3c53-ded4-806c-8007-5ec7a0e5c497"><defs><linearGradient id="fill-color-gradient-render-4-0" x1="0.5" y1="0" x2="0.5" y2="1" gradientTransform=""><stop offset="0" stop-color="#010b11" stop-opacity="1"/><stop offset="1" stop-color="#03f8c5" stop-opacity="1"/></linearGradient><pattern patternUnits="userSpaceOnUse" x="0.13011637590398095" y="77.72946671286536" width="433.3268947566785" height="845.2663337672448" patternTransform="matrix(1.000000, 0.000000, 0.000000, 1.000000, 0.000000, 0.000000)" id="fill-0-render-4"><g><rect width="433.3268947566785" height="845.2663337672448" style="fill: url(&quot;#fill-color-gradient-render-4-0&quot;);"/></g></pattern></defs><g class="fills" id="fills-96ab3c53-ded4-806c-8007-5ec7a0e5c497"><path d="M87.46990966796875,922.99365234375C111.88616943359375,911.09521484375,140.09344482421875,901.951171875,167.29241943359375,893.7412109375C212.34881591796875,880.1396484375,259.29901123046875,870.58447265625,304.68768310546875,857.8974609375C415.50042724609375,826.9208984375,457.78875732421875,778.14697265625,405.57537841796875,695.34375C381.87127685546875,657.7509765625,357.43988037109375,624.1435546875,343.87640380859375,583.1689453125C331.37811279296875,545.40771484375,331.35101318359375,520.09912109375,292.55438232421875,489.62109375C258.75457763671875,463.0703125,194.61102294921875,444.85400390625,199.68280029296875,401.8046875C202.66595458984375,376.47705078125,242.53094482421875,349.35791015625,263.18890380859375,329.6748046875C330.32781982421875,265.701171875,332.49993896484375,196.2939453125,286.75262451171875,124.42236328125C261.31878662109375,84.46728515625,236.94769287109375,75.42626953125,176.57708740234375,88.68994140625C113.08612060546875,102.6416015625,61.50946044921875,132.15673828125,0.21746651828289032,149.07470703125C0.22357003390789032,147.64794921875,-0.3689592778682709,146.11669921875,1.4503766298294067,145.01953125C3.5299665927886963,143.76513671875,17.009946823120117,140.6796875,20.995298385620117,139.32421875C78.70257568359375,119.6943359375,167.59466552734375,72.818359375,232.35467529296875,78.14892578125C269.91864013671875,81.24072265625,287.53948974609375,113.818359375,299.07733154296875,136.23876953125C333.68792724609375,203.49365234375,332.52996826171875,266.015625,274.23040771484375,325.9453125C255.81927490234375,344.86865234375,210.36199951171875,377.31591796875,206.22088623046875,399.3232421875C198.22259521484375,441.82275390625,264.42791748046875,460.89501953125,297.54217529296875,486.92138671875C338.78973388671875,519.33984375,335.88128662109375,542.548828125,348.62176513671875,582.44482421875C361.97601318359375,624.2607421875,387.80169677734375,658.05078125,411.80804443359375,696.248046875C461.73553466796875,775.68603515625,423.34881591796875,826.544921875,316.82977294921875,858.56689453125C249.45477294921875,878.8203125,179.09368896484375,891.0771484375,113.62152099609375,916.22021484375C108.78314208984375,918.0791015625,102.66131591796875,920.333984375,98.68743896484375,922.99609375L87.46673583984375,922.99609375Z" fill="url(#fill-0-render-4)"/></g></g><g id="shape-96ab3c53-ded4-806c-8007-5ec7a0e5c498"><defs><linearGradient id="fill-color-gradient-render-5-0" x1="0.5" y1="0" x2="0.5" y2="1" gradientTransform=""><stop offset="0" stop-color="#010b11" stop-opacity="1"/><stop offset="1" stop-color="#03f8c5" stop-opacity="1"/></linearGradient><pattern patternUnits="userSpaceOnUse" x="582.7153375249613" y="0.28520723863312014" width="504.52814160139724" height="922.7085446951887" patternTransform="matrix(1.000000, 0.000000, 0.000000, 1.000000, 0.000000, 0.000000)" id="fill-0-render-5"><g><rect width="504.52814160139724" height="922.7085446951887" style="fill: url(&quot;#fill-color-gradient-render-5-0&quot;);"/></g></pattern></defs><g class="fills" id="fills-96ab3c53-ded4-806c-8007-5ec7a0e5c498"><path d="M1078.5240478515625,922.99365234375C1033.2974853515625,885.0859375,959.7194213867188,889.73046875,897.5060424804688,880.384765625C838.8829956054688,871.5791015625,804.3021850585938,857.396484375,782.7374877929688,815.57421875C776.3551635742188,803.19775390625,772.8004760742188,790.068359375,766.5529174804688,777.71875C743.6447143554688,732.4482421875,677.7477416992188,707.185546875,637.2575073242188,670.2509765625C551.6928100585938,592.197265625,666.0480346679688,548.25,673.3610229492188,472.05712890625C678.8458862304688,414.921875,637.4518432617188,390.158203125,600.5521850585938,347.20751953125C555.6183471679688,294.9052734375,601.8776245117188,261.56640625,669.3244018554688,243.001953125C753.8151245117188,219.744140625,807.6564331054688,226.74853515625,851.8571166992188,158.6923828125C869.4210815429688,131.64892578125,903.5980834960938,70.13330078125,902.6583862304688,41.55224609375C901.9882202148438,21.1689453125,883.4933471679688,8.34326171875,859.1222534179688,0.86083984375C873.4039916992188,-2.416015625,892.9489135742188,9.00390625,900.0343627929688,17.24169921875C920.4498901367188,40.9814453125,898.8551635742188,83.37841796875,886.2550659179688,107.869140625C869.9628295898438,139.5302734375,847.4557495117188,183.15380859375,811.7645874023438,205.39404296875C756.4391479492188,239.86962890625,674.1452026367188,233.34375,617.9367065429688,268.025390625C545.6246948242188,312.6416015625,621.0636596679688,354.423828125,652.3947143554688,395.3291015625C678.9205932617188,429.9599609375,685.0304565429688,465.64453125,668.4328002929688,503.6318359375C640.2435913085938,568.1533203125,566.9498901367188,603.51220703125,644.7318725585938,671.15283203125C674.3395385742188,696.900390625,714.1657104492188,716.50341796875,744.4616088867188,741.42626953125C795.4303588867188,783.353515625,772.6207885742188,841.30908203125,856.6622924804688,867.5556640625C931.7753295898438,891.01416015625,1030.4967041015625,872.51025390625,1087.2432861328125,922.99365234375L1078.5181884765625,922.99365234375Z" fill="url(#fill-0-render-5)"/></g></g><g id="shape-96ab3c53-ded4-806c-8007-5ec7a0e5c499"><defs><linearGradient id="fill-color-gradient-render-6-0" x1="0.5" y1="0" x2="0.5" y2="1" gradientTransform=""><stop offset="0" stop-color="#010b11" stop-opacity="1"/><stop offset="1" stop-color="#03f8c5" stop-opacity="1"/></linearGradient><pattern patternUnits="userSpaceOnUse" x="519.1591399805557" y="0.2718498486874523" width="453.3997678796286" height="922.7219020851344" patternTransform="matrix(1.000000, 0.000000, 0.000000, 1.000000, 0.000000, 0.000000)" id="fill-0-render-6"><g><rect width="453.3997678796286" height="922.7219020851344" style="fill: url(&quot;#fill-color-gradient-render-6-0&quot;);"/></g></pattern></defs><g class="fills" id="fills-96ab3c53-ded4-806c-8007-5ec7a0e5c499"><path d="M952.6159057617188,922.99365234375C904.2921752929688,908.7021484375,848.8527221679688,913.6337890625,801.3278198242188,897.640625C717.0529174804688,869.27978515625,716.1554565429688,804.9765625,676.0809936523438,753.009765625C625.4801635742188,687.3916015625,525.6036987304688,651.5771484375,580.0558471679688,565.89404296875C595.7169799804688,541.25,616.2643432617188,522.65185546875,626.6232299804688,495.03955078125C661.7843627929688,401.3095703125,503.97625732421875,372.66748046875,520.3556518554688,291.203125C537.1627807617188,207.61962890625,696.3590698242188,217.6044921875,767.4415893554688,177.86767578125C811.2233276367188,153.3916015625,833.8229370117188,102.69189453125,815.8280639648438,64.58935546875C803.8414916992188,39.2109375,768.9254760742188,28.62841796875,744.3805541992188,10.814453125C740.6972045898438,8.1396484375,737.7321166992188,4.1669921875,733.2228393554688,1.75634765625C731.8312377929688,-0.662109375,739.6139526367188,0.40771484375,741.4035034179688,1.2529296875C743.4740600585938,2.23046875,750.9904174804688,9.41748046875,754.3864135742188,11.69140625C772.3307495117188,23.705078125,797.8063354492188,34.21630859375,811.5165405273438,48.78515625C847.5421752929688,87.068359375,819.1256713867188,154.36083984375,770.5084838867188,180.98486328125C704.8927612304688,216.91650390625,560.1337280273438,212.49267578125,530.3764038085938,277.72314453125C495.16741943359375,354.90625,628.7384643554688,389.34423828125,635.9586791992188,459.46435546875C644.2472534179688,539.943359375,517.4293823242188,581.60791015625,592.3087768554688,664.8955078125C619.4240112304688,695.05615234375,656.4103393554688,718.37890625,681.0690307617188,751.2060546875C721.9210815429688,805.59326171875,723.1061401367188,871.64404296875,814.8346557617188,896.8857421875C849.9660034179688,906.5537109375,888.9450073242188,906.001953125,925.2013549804688,911.720703125C941.1886596679688,914.2421875,957.8461303710938,917.8310546875,972.5590209960938,922.99169921875L952.6129760742188,922.99169921875Z" fill="url(#fill-0-render-6)"/></g></g><g id="shape-96ab3c53-ded4-806c-8007-5ec7a0e5c49a"><defs><linearGradient id="fill-color-gradient-render-7-0" x1="0.5" y1="0" x2="0.5" y2="1" gradientTransform=""><stop offset="0" stop-color="#010b11" stop-opacity="1"/><stop offset="1" stop-color="#03f8c5" stop-opacity="1"/></linearGradient><pattern patternUnits="userSpaceOnUse" x="255.75942646827752" y="0.17627361922222917" width="290.3894549896145" height="922.8195268608879" patternTransform="matrix(1.000000, 0.000000, 0.000000, 1.000000, 0.000000, 0.000000)" id="fill-0-render-7"><g><rect width="290.3894549896145" height="922.8195268608879" style="fill: url(&quot;#fill-color-gradient-render-7-0&quot;);"/></g></pattern></defs><g class="fills" id="fills-96ab3c53-ded4-806c-8007-5ec7a0e5c49a"><path d="M255.76239013671875,922.99365234375C344.05877685546875,906.5771484375,463.81829833984375,882.0107421875,485.77484130859375,807.6806640625C510.31976318359375,724.58154296875,406.24261474609375,672.35693359375,394.15106201171875,591.8828125C386.41619873046875,540.3984375,422.34930419921875,511.06640625,379.70184326171875,459.97412109375C362.30511474609375,439.1337890625,326.57855224609375,419.61865234375,318.46356201171875,397.02001953125C307.40447998046875,366.23193359375,335.62078857421875,316.13427734375,345.13006591796875,284.3876953125C352.53582763671875,259.6640625,357.87371826171875,233.4443359375,359.28314208984375,208.123046875C361.15936279296875,174.431640625,346.58123779296875,127.193359375,363.99285888671875,97.10595703125C394.32147216796875,44.69677734375,499.02728271484375,56.7607421875,533.9669799804688,12.73193359375C535.6754760742188,10.57958984375,540.6574096679688,0.92138671875,541.4445190429688,0.57763671875C542.3991088867188,0.158203125,546.6928100585938,-0.40625,546.0914916992188,1.662109375C545.4181518554688,3.97998046875,541.8783569335938,9.54541015625,540.2206420898438,11.8486328125C512.4801635742188,50.39404296875,454.10858154296875,47.9794921875,409.19891357421875,68.51806640625C361.33856201171875,90.40576171875,360.10589599609375,115.86376953125,361.67083740234375,154.0693359375C363.55584716796875,200.0322265625,364.10052490234375,235.13330078125,351.35980224609375,280.78564453125C342.58978271484375,312.21337890625,310.73504638671875,369.8798828125,325.86639404296875,398.87646484375C336.25213623046875,418.779296875,367.26043701171875,437.24560546875,383.43914794921875,456.37255859375C428.84539794921875,510.0634765625,393.55267333984375,530.8203125,397.88543701171875,583.779296875C402.34686279296875,638.328125,439.60833740234375,667.56396484375,469.81756591796875,712.8828125C526.4777221679688,797.8759765625,484.58099365234375,866.12060546875,367.91253662109375,901.79443359375C338.43963623046875,910.8056640625,307.24285888671875,915.76953125,276.95330810546875,922.99609375L255.75946044921875,922.99609375Z" fill="url(#fill-0-render-7)"/></g></g><g id="shape-96ab3c53-ded4-806c-8007-5ec7a0e5c49b"><defs><linearGradient id="fill-color-gradient-render-8-0" x1="0.5" y1="0" x2="0.5" y2="1" gradientTransform=""><stop offset="0" stop-color="#010b11" stop-opacity="1"/><stop offset="1" stop-color="#03f8c5" stop-opacity="1"/></linearGradient><pattern patternUnits="userSpaceOnUse" x="468.5276567643832" y="0.8545050197426463" width="297.32945788655707" height="922.1392469140792" patternTransform="matrix(1.000000, 0.000000, 0.000000, 1.000000, 0.000000, 0.000000)" id="fill-0-render-8"><g><rect width="297.32945788655707" height="922.1392469140792" style="fill: url(&quot;#fill-color-gradient-render-8-0&quot;);"/></g></pattern></defs><g class="fills" id="fills-96ab3c53-ded4-806c-8007-5ec7a0e5c49b"><path d="M709.5275268554688,922.99365234375C679.7494506835938,902.9482421875,663.5646362304688,878.0400390625,656.3146362304688,849.2822265625C647.4667358398438,814.185546875,646.2997436523438,784.716796875,624.9772338867188,751.2041015625C588.7658081054688,694.28662109375,503.63226318359375,655.703125,528.3624877929688,584.39404296875C537.7492065429688,557.3271484375,564.3947143554688,533.74462890625,577.4166870117188,507.2275390625C612.4010620117188,435.98291015625,533.6051635742188,411.57177734375,492.40252685546875,359.60302734375C442.96258544921875,297.24658203125,471.67889404296875,220.0068359375,565.8307495117188,192.53076171875C620.3576049804688,176.61767578125,724.2731323242188,171.67529296875,752.3756713867188,130.0419921875C788.8475952148438,76.01318359375,698.2828979492188,47.455078125,683.3668823242188,0.8544921875L689.7252807617188,0.9384765625C704.3331909179688,43.22412109375,770.4186401367188,63.4228515625,765.6071166992188,110.7744140625C758.7401733398438,178.3798828125,611.1505737304688,177.6162109375,547.8746948242188,202.9794921875C478.98260498046875,230.595703125,456.43939208984375,294.1396484375,487.41156005859375,345.189453125C522.7252807617188,403.4013671875,617.8739624023438,428.6826171875,583.6373901367188,504.51708984375C568.9396362304688,537.07177734375,532.0101928710938,567.33740234375,528.7125854492188,601.76708984375C522.9796752929688,661.6484375,599.3344116210938,700.98876953125,630.8092651367188,751.48876953125C651.4284057617188,784.57421875,653.4718627929688,812.8095703125,662.7448120117188,847.3359375C670.9164428710938,877.76904296875,688.4684448242188,904.90966796875,724.4826049804688,922.99365234375L709.5245971679688,922.99365234375Z" fill="url(#fill-0-render-8)"/></g></g><g id="shape-96ab3c53-ded4-806c-8007-5ec7a0e5c49c"><defs><linearGradient id="fill-color-gradient-render-9-0" x1="0.5" y1="0" x2="0.5" y2="1" gradientTransform=""><stop offset="0" stop-color="#010b11" stop-opacity="1"/><stop offset="1" stop-color="#03f8c5" stop-opacity="1"/></linearGradient><pattern patternUnits="userSpaceOnUse" x="921.6594979282263" y="453.5972814980005" width="993.3397068679933" height="469.39647043582136" patternTransform="matrix(1.000000, 0.000000, 0.000000, 1.000000, 0.000000, 0.000000)" id="fill-0-render-9"><g><rect width="993.3397068679933" height="469.39647043582136" style="fill: url(&quot;#fill-color-gradient-render-9-0&quot;);"/></g></pattern></defs><g class="fills" id="fills-96ab3c53-ded4-806c-8007-5ec7a0e5c49c"><path d="M1255.5418701171875,922.99365234375C1222.6280517578125,896.759765625,1183.6217041015625,873.8779296875,1137.4464111328125,861.0380859375C1082.3121337890625,845.7080078125,977.8668823242188,837.13671875,940.7579956054688,804.978515625C896.8204956054688,766.9052734375,937.4845581054688,681.97509765625,974.5607299804688,646.4921875C1007.5822143554688,614.89013671875,1082.4320068359375,584.88037109375,1131.2913818359375,566.0595703125C1186.2994384765625,544.86865234375,1229.9737548828125,543.52392578125,1289.6168212890625,536.3330078125C1342.2344970703125,529.98974609375,1409.2117919921875,516.9228515625,1461.4884033203125,524.13720703125C1493.2261962890625,528.51513671875,1525.2935791015625,542.1689453125,1557.8336181640625,540.9794921875C1611.7049560546875,539.009765625,1670.1065673828125,506.92529296875,1717.9786376953125,490.044921875C1777.6307373046875,469.01123046875,1848.3602294921875,454.44482421875,1914.9991455078125,453.59716796875L1914.9991455078125,457.201171875C1841.1009521484375,457.40869140625,1766.6434326171875,475.48681640625,1701.8028564453125,499.9775390625C1644.0235595703125,521.80029296875,1589.4759521484375,555.021484375,1519.8270263671875,541.43896484375C1478.8399658203125,533.44677734375,1458.9061279296875,524.95703125,1413.1883544921875,526.537109375C1360.6573486328125,528.353515625,1293.3065185546875,538.4287109375,1240.1680908203125,544.74267578125C1164.5106201171875,553.7333984375,1105.7203369140625,578.30859375,1042.4774169921875,608.18603515625C974.0368041992188,640.52001953125,937.5563354492188,685,927.8615112304688,744.283203125C913.2418823242188,833.681640625,1037.5731201171875,832.80908203125,1124.0472412109375,853.603515625C1180.1300048828125,867.08984375,1223.9744873046875,891.48583984375,1263.0194091796875,922.99365234375L1255.5389404296875,922.99365234375Z" fill="url(#fill-0-render-9)"/></g></g><g id="shape-96ab3c53-ded4-806c-8007-5ec7a0e5c49d"><defs><linearGradient id="fill-color-gradient-render-10-0" x1="0.5" y1="0" x2="0.5" y2="1" gradientTransform=""><stop offset="0" stop-color="#010b11" stop-opacity="1"/><stop offset="1" stop-color="#03f8c5" stop-opacity="1"/></linearGradient><pattern patternUnits="userSpaceOnUse" x="1007.6595410150785" y="534.1015378767697" width="907.3396637811411" height="388.8922140570521" patternTransform="matrix(1.000000, 0.000000, 0.000000, 1.000000, 0.000000, 0.000000)" id="fill-0-render-10"><g><rect width="907.3396637811411" height="388.8922140570521" style="fill: url(&quot;#fill-color-gradient-render-10-0&quot;);"/></g></pattern></defs><g class="fills" id="fills-96ab3c53-ded4-806c-8007-5ec7a0e5c49d"><path d="M1386.4351806640625,922.99365234375C1374.9390869140625,915.7333984375,1361.5521240234375,910.09912109375,1349.6939697265625,903.1474609375C1315.7357177734375,883.2421875,1291.9361572265625,859.130859375,1261.1822509765625,838.27978515625C1196.3712158203125,794.3349609375,1059.3619384765625,814.7705078125,1018.4738159179688,763.2255859375C970.6168823242188,702.8955078125,1093.1798095703125,644.9716796875,1159.8458251953125,629.9453125C1227.4722900390625,614.70361328125,1271.3917236328125,626.87646484375,1336.3399658203125,635.30322265625C1422.7904052734375,646.51953125,1535.6104736328125,625.96826171875,1613.7635498046875,598.52197265625C1685.9920654296875,573.154296875,1790.9132080078125,512.11083984375,1873.9163818359375,542.298828125C1889.2274169921875,547.8681640625,1902.2642822265625,557.205078125,1914.9991455078125,565.31298828125L1914.9991455078125,571.61865234375C1902.5965576171875,563.21533203125,1890.4451904296875,554.46142578125,1875.4874267578125,548.36962890625C1798.2711181640625,516.91015625,1704.5823974609375,567.939453125,1637.8416748046875,593.39697265625C1563.1180419921875,621.90087890625,1478.7950439453125,641.64453125,1393.3499755859375,642.837890625C1328.2818603515625,643.74658203125,1272.2713623046875,623.64208984375,1207.4935302734375,626.541015625C1135.0704345703125,629.7822265625,1000.1051635742188,683.0048828125,1015.2604370117188,745.7265625C1029.1260986328125,803.109375,1163.0626220703125,798.85107421875,1222.2120361328125,815.08984375C1269.7159423828125,828.130859375,1299.5303955078125,866.5986328125,1337.7972412109375,891.0224609375C1356.1781005859375,902.7529296875,1376.0643310546875,913.13232421875,1396.4051513671875,922.99365234375L1386.4322509765625,922.99365234375Z" fill="url(#fill-0-render-10)"/></g></g><g id="shape-96ab3c53-ded4-806c-8007-5ec7a0e5c49e"><defs><linearGradient id="fill-color-gradient-render-11-0" x1="0.5" y1="0" x2="0.5" y2="1" gradientTransform=""><stop offset="0" stop-color="#010b11" stop-opacity="1"/><stop offset="1" stop-color="#03f8c5" stop-opacity="1"/></linearGradient><pattern patternUnits="userSpaceOnUse" x="965.2614670892312" y="494.0282098822745" width="949.7317474878732" height="428.96554205154735" patternTransform="matrix(1.000000, 0.000000, 0.000000, 1.000000, 0.000000, 0.000000)" id="fill-0-render-11"><g><rect width="949.7317474878732" height="428.96554205154735" style="fill: url(&quot;#fill-color-gradient-render-11-0&quot;);"/></g></pattern></defs><g class="fills" id="fills-96ab3c53-ded4-806c-8007-5ec7a0e5c49e"><path d="M1330.3375244140625,922.99365234375C1317.4561767578125,914.697265625,1303.4527587890625,907.3173828125,1290.4278564453125,899.13037109375C1255.9639892578125,877.46728515625,1232.8970947265625,855.7412109375,1188.5528564453125,843.0185546875C1110.4449462890625,820.61083984375,948.5314331054688,823.654296875,966.6671752929688,732.689453125C978.8903198242188,671.3857421875,1039.7515869140625,637.54150390625,1110.9024658203125,610.79345703125C1189.8394775390625,581.119140625,1258.2857666015625,574.02490234375,1347.2135009765625,576.99072265625C1397.3477783203125,578.6630859375,1443.7564697265625,594.4775390625,1494.3155517578125,592.3818359375C1515.1080322265625,591.51953125,1542.1636962890625,587.2509765625,1562.1993408203125,582.88134765625C1679.5198974609375,557.29150390625,1781.9425048828125,468.1279296875,1914.9932861328125,501.34765625L1914.9932861328125,505.85107421875C1800.1412353515625,473.892578125,1700.7076416015625,543.884765625,1602.9381103515625,575.3837890625C1557.2652587890625,590.099609375,1505.9190673828125,598.82373046875,1455.6265869140625,595.03955078125C1419.2535400390625,592.30224609375,1384.0860595703125,582.904296875,1347.2135009765625,581.49462890625C1250.2340087890625,577.7900390625,1184.7528076171875,585.650390625,1100.1187744140625,619.2158203125C1041.2086181640625,642.580078125,996.2389526367188,668.056640625,976.9215698242188,716.67529296875C934.1661987304688,824.28369140625,1114.5260009765625,814.92822265625,1200.6441650390625,842.38671875C1236.7598876953125,853.9013671875,1257.0531005859375,872.69287109375,1285.4368896484375,891.0205078125C1302.7017822265625,902.169921875,1321.3790283203125,912.21337890625,1339.0601806640625,922.99169921875L1330.3345947265625,922.99169921875Z" fill="url(#fill-0-render-11)"/></g></g><g id="shape-96ab3c53-ded4-806c-8007-5ec7a0e5c49f"><defs><linearGradient id="fill-color-gradient-render-12-0" x1="0.5" y1="0" x2="0.5" y2="1" gradientTransform=""><stop offset="0" stop-color="#010b11" stop-opacity="1"/><stop offset="1" stop-color="#03f8c5" stop-opacity="1"/></linearGradient><pattern patternUnits="userSpaceOnUse" x="424.3441533498458" y="0.3636405204060793" width="265.1987434513221" height="922.6301114134158" patternTransform="matrix(1.000000, 0.000000, 0.000000, 1.000000, 0.000000, 0.000000)" id="fill-0-render-12"><g><rect width="265.1987434513221" height="922.6301114134158" style="fill: url(&quot;#fill-color-gradient-render-12-0&quot;);"/></g></pattern></defs><g class="fills" id="fills-96ab3c53-ded4-806c-8007-5ec7a0e5c49f"><path d="M599.8251342773438,922.99365234375C582.9552612304688,885,599.2326049804688,843.8720703125,596.1386108398438,804.4814453125C588.3439331054688,705.2451171875,440.12615966796875,663.50048828125,500.38568115234375,555.162109375C520.6727905273438,518.68701171875,550.3551635742188,491.4462890625,524.8527221679688,450.5703125C501.97161865234375,413.900390625,451.39154052734375,388.02294921875,433.67205810546875,348.89208984375C407.74139404296875,291.630859375,436.19427490234375,185.875,515.0324096679688,154.91064453125C574.4393920898438,131.57763671875,722.0050659179688,149.296875,672.3497924804688,65.57958984375C659.6808471679688,44.220703125,642.2662963867188,24.66552734375,637.2514038085938,0.85009765625L642.6969604492188,0.36376953125C646.3595581054688,9.39453125,649.3190307617188,18.6328125,654.0763549804688,27.4326171875C667.9032592773438,53.0078125,705.0841674804688,87.0009765625,682.3466186523438,114.56298828125C653.3405151367188,149.72509765625,563.7272338867188,140.880859375,517.9618530273438,158.8310546875C437.31658935546875,190.46240234375,409.18084716796875,299.9609375,443.78533935546875,356.9013671875C469.33880615234375,398.9521484375,544.6491088867188,436.24072265625,540.0382690429688,485.61474609375C537.0758666992188,517.330078125,504.25457763671875,549.43115234375,493.24920654296875,580.634765625C469.91619873046875,646.7900390625,551.4025268554688,695.49072265625,582.9611206054688,750.939453125C607.6676635742188,794.349609375,599.6364135742188,820.224609375,597.2848510742188,864.84521484375C596.2553100585938,884.37890625,596.6232299804688,904.29052734375,604.8161010742188,922.99365234375L599.8312377929688,922.99365234375Z" fill="url(#fill-0-render-12)"/></g></g><g id="shape-96ab3c53-ded4-806c-8007-5ec7a0e5c4a0"><defs><linearGradient id="fill-color-gradient-render-13-0" x1="0.5" y1="0" x2="0.5" y2="1" gradientTransform=""><stop offset="0" stop-color="#010b11" stop-opacity="1"/><stop offset="1" stop-color="#03f8c5" stop-opacity="1"/></linearGradient><pattern patternUnits="userSpaceOnUse" x="1068.217657727926" y="579.6460240261486" width="846.7815470682935" height="343.3477279076733" patternTransform="matrix(1.000000, 0.000000, 0.000000, 1.000000, 0.000000, 0.000000)" id="fill-0-render-13"><g><rect width="846.7815470682935" height="343.3477279076733" style="fill: url(&quot;#fill-color-gradient-render-13-0&quot;);"/></g></pattern></defs><g class="fills" id="fills-96ab3c53-ded4-806c-8007-5ec7a0e5c4a0"><path d="M1451.2608642578125,922.99365234375C1399.0323486328125,905.48828125,1352.8302001953125,881.01416015625,1317.3785400390625,848.1220703125C1283.7730712890625,816.94189453125,1276.4244384765625,791.42529296875,1215.6622314453125,781.9853515625C1168.6490478515625,774.68359375,1061.9532470703125,779.783203125,1068.5064697265625,726.1025390625C1071.1602783203125,704.36181640625,1107.4617919921875,685.33349609375,1132.9281005859375,677.16064453125C1215.1026611328125,650.78857421875,1274.9554443359375,681.1337890625,1357.1925048828125,677.07080078125C1425.4381103515625,673.697265625,1532.1461181640625,653.2216796875,1595.4635009765625,633.94580078125C1649.3768310546875,617.533203125,1730.5787353515625,576.43701171875,1788.3067626953125,579.845703125C1856.9207763671875,583.896484375,1885.1099853515625,641.564453125,1914.9991455078125,677.93505859375L1914.9991455078125,684.24072265625C1885.5111083984375,649.2255859375,1856.1937255859375,588.3330078125,1789.6954345703125,584.2490234375C1726.6380615234375,580.37646484375,1627.8328857421875,629.99609375,1564.1021728515625,646.4189453125C1500.4583740234375,662.81884765625,1387.3568115234375,683.7080078125,1320.9302978515625,681.5830078125C1254.2252197265625,679.44921875,1209.2017822265625,659.1455078125,1140.2022705078125,678.81591796875C1065.9151611328125,699.99462890625,1042.1778564453125,753.72119140625,1135.8634033203125,770.28662109375C1181.1322021484375,778.29150390625,1230.1324462890625,771.16357421875,1268.0284423828125,794.5947265625C1291.8253173828125,809.310546875,1305.3140869140625,830.06298828125,1324.1588134765625,847.7255859375C1360.7593994140625,882.02978515625,1407.9730224609375,905.5009765625,1462.4815673828125,922.99365234375L1451.2608642578125,922.99365234375Z" fill="url(#fill-0-render-13)"/></g></g><g id="shape-96ab3c53-ded4-806c-8007-5ec7a0e5c4a1"><defs><linearGradient id="fill-color-gradient-render-14-0" x1="0.5" y1="0" x2="0.5" y2="1" gradientTransform=""><stop offset="0" stop-color="#010b11" stop-opacity="1"/><stop offset="1" stop-color="#03f8c5" stop-opacity="1"/></linearGradient><pattern patternUnits="userSpaceOnUse" x="379.56908385771567" y="0.19704994284438726" width="225.50504539731173" height="922.7967019909775" patternTransform="matrix(1.000000, 0.000000, 0.000000, 1.000000, 0.000000, 0.000000)" id="fill-0-render-14"><g><rect width="225.50504539731173" height="922.7967019909775" style="fill: url(&quot;#fill-color-gradient-render-14-0&quot;);"/></g></pattern></defs><g class="fills" id="fills-96ab3c53-ded4-806c-8007-5ec7a0e5c4a1"><path d="M486.38519287109375,922.99365234375C533.6708374023438,877.36865234375,561.2409057617188,817.29638671875,538.1141967773438,760.826171875C512.9440307617188,699.35888671875,447.16668701171875,668.0234375,442.70233154296875,598.23876953125C439.73724365234375,551.904296875,484.02435302734375,513.9482421875,465.52069091796875,467.32666015625C451.41571044921875,431.79150390625,407.05633544921875,405.9853515625,389.46844482421875,370.9306640625C369.64813232421875,331.4267578125,384.25018310546875,289.83935546875,393.09783935546875,249.6806640625C399.10906982421875,222.40234375,404.98284912109375,192.83935546875,413.22039794921875,166.02001953125C425.29974365234375,126.708984375,442.56756591796875,106.2373046875,497.60906982421875,93.66796875C541.8722534179688,83.56103515625,592.9071655273438,87.44384765625,598.4186401367188,43.99609375C600.2350463867188,29.6708984375,595.9950561523438,15.8994140625,594.8222045898438,1.7626953125C594.5888061523438,-1.06298828125,601.4230346679688,0.36572265625,601.0817260742188,2.66259765625C602.0512084960938,20.79541015625,609.2057495117188,40.2431640625,601.6412963867188,58.03369140625C587.5062866210938,91.26806640625,543.0692749023438,88.3876953125,505.08953857421875,96.36767578125C429.27630615234375,112.29736328125,423.94134521484375,146.685546875,410.73968505859375,196.6572265625C400.28509521484375,236.234375,377.80487060546875,309.80322265625,385.75799560546875,347.482421875C396.76336669921875,399.62744140625,467.19329833984375,431.54833984375,475.01483154296875,480.2822265625C481.91790771484375,523.28125,443.51629638671875,558.78515625,447.75604248046875,602.69189453125C453.31268310546875,660.2470703125,499.51190185546875,686.193359375,528.9940795898438,734.08203125C554.2033081054688,775.03173828125,557.7069702148438,809.3544921875,540.6124877929688,852.7138671875C530.5380249023438,878.2705078125,513.0785522460938,901.14794921875,492.62078857421875,922.99169921875L486.38836669921875,922.99169921875Z" fill="url(#fill-0-render-14)"/></g></g><g id="shape-96ab3c53-ded4-806c-8007-5ec7a0e5c4a2"><defs><linearGradient id="fill-color-gradient-render-15-0" x1="0.5" y1="0" x2="0.5" y2="1" gradientTransform=""><stop offset="0" stop-color="#010b11" stop-opacity="1"/><stop offset="1" stop-color="#03f8c5" stop-opacity="1"/></linearGradient><pattern patternUnits="userSpaceOnUse" x="1431.5375693437827" y="726.2983126646286" width="483.4616354524369" height="184.0819252105266" patternTransform="matrix(1.000000, 0.000000, 0.000000, 1.000000, 0.000000, 0.000000)" id="fill-0-render-15"><g><rect width="483.4616354524369" height="184.0819252105266" style="fill: url(&quot;#fill-color-gradient-render-15-0&quot;);"/></g></pattern></defs><g class="fills" id="fills-96ab3c53-ded4-806c-8007-5ec7a0e5c4a2"><path d="M1914.9991455078125,910.38037109375C1850.9752197265625,910.35498046875,1787.5709228515625,906.10107421875,1736.1441650390625,876.1181640625C1714.0020751953125,863.208984375,1698.4036865234375,846.08349609375,1678.1614990234375,833.33544921875C1636.6448974609375,807.19189453125,1618.3477783203125,831.9150390625,1581.7562255859375,842.97021484375C1538.3184814453125,856.09375,1450.9317626953125,846.02685546875,1435.0343017578125,809.03564453125C1414.4600830078125,761.1572265625,1489.3096923828125,744.67138671875,1538.5042724609375,736.93310546875C1572.5191650390625,731.58203125,1619.5506591796875,724.9404296875,1653.8917236328125,726.541015625C1731.4644775390625,730.1552734375,1738.7623291015625,782.70947265625,1772.3673095703125,821.10791015625C1805.5360107421875,859.00927734375,1852.4234619140625,875.7724609375,1914.9991455078125,874.33935546875L1914.9991455078125,877.943359375C1853.1624755859375,879.57958984375,1800.2906494140625,863.03466796875,1767.3826904296875,824.7119140625C1739.8306884765625,792.625,1728.1697998046875,742.00732421875,1669.2210693359375,732.58251953125C1633.0811767578125,726.80517578125,1571.5201416015625,736.23046875,1534.5452880859375,742.17724609375C1499.3575439453125,747.8369140625,1441.8145751953125,759.1962890625,1438.7418212890625,790.9638671875C1434.6754150390625,832.998046875,1506.1915283203125,847.876953125,1552.7081298828125,844.49951171875C1603.1324462890625,840.8369140625,1628.9520263671875,795.91455078125,1680.6541748046875,828.82958984375C1702.2545166015625,842.58203125,1717.3892822265625,859.2607421875,1741.8502197265625,872.89599609375C1793.1964111328125,901.51953125,1851.1099853515625,908.12109375,1914.9991455078125,906.7744140625L1914.9991455078125,910.3779296875Z" fill="url(#fill-0-render-15)"/></g></g><g id="shape-96ab3c53-ded4-806c-8007-5ec7a0e5c4a3"><defs><linearGradient id="fill-color-gradient-render-16-0" x1="0.5" y1="0" x2="0.5" y2="1" gradientTransform=""><stop offset="0" stop-color="#010b11" stop-opacity="1"/><stop offset="1" stop-color="#03f8c5" stop-opacity="1"/></linearGradient><pattern patternUnits="userSpaceOnUse" x="1375.2843986943253" y="679.607512647688" width="539.7148061018943" height="243.39248735231195" patternTransform="matrix(1.000000, 0.000000, 0.000000, 1.000000, 0.000000, 0.000000)" id="fill-0-render-16"><g><rect width="539.7148061018943" height="243.39248735231195" style="fill: url(&quot;#fill-color-gradient-render-16-0&quot;);"/></g></pattern></defs><g class="fills" id="fills-96ab3c53-ded4-806c-8007-5ec7a0e5c4a3"><path d="M1706.8148193359375,922.99365234375C1683.8135986328125,912.62890625,1657.9793701171875,905.60791015625,1632.0159912109375,900.021484375C1549.2908935546875,882.224609375,1408.2301025390625,885.484375,1379.8763427734375,811.06201171875C1363.7662353515625,768.7724609375,1391.2198486328125,739.9306640625,1443.8223876953125,723.4638671875C1509.6473388671875,710.52294921875,1578.7039794921875,694.4189453125,1645.4927978515625,684.521484375C1711.3629150390625,674.7587890625,1756.6136474609375,676.02587890625,1791.7987060546875,721.47705078125C1824.1055908203125,763.2109375,1840.1944580078125,824.73291015625,1914.9991455078125,837.4052734375L1914.9991455078125,841.0087890625C1835.3172607421875,830.10498046875,1819.8385009765625,767.32666015625,1786.8138427734375,724.18115234375C1752.5682373046875,679.44287109375,1707.5269775390625,678.60400390625,1643.2247314453125,688.2890625C1582.5880126953125,697.4228515625,1523.2442626953125,712.1025390625,1462.7447509765625,721.8271484375C1405.1871337890625,736.01416015625,1367.5543212890625,764.66064453125,1385.8218994140625,811.27392578125C1413.9483642578125,883.046875,1555.3770751953125,879.40966796875,1635.4659423828125,896.6318359375C1662.9073486328125,902.53271484375,1692.3323974609375,910.900390625,1715.5399169921875,923L1706.8148193359375,923Z" fill="url(#fill-0-render-16)"/></g></g><g id="shape-96ab3c53-ded4-806c-8007-5ec7a0e5c4a4"><defs><linearGradient id="fill-color-gradient-render-17-0" x1="0.5" y1="0" x2="0.5" y2="1" gradientTransform=""><stop offset="0" stop-color="#010b11" stop-opacity="1"/><stop offset="1" stop-color="#03f8c5" stop-opacity="1"/></linearGradient><pattern patternUnits="userSpaceOnUse" x="1319.456355745443" y="631.239882260079" width="595.5428490507766" height="291.7538696737429" patternTransform="matrix(1.000000, 0.000000, 0.000000, 1.000000, 0.000000, 0.000000)" id="fill-0-render-17"><g><rect width="595.5428490507766" height="291.7538696737429" style="fill: url(&quot;#fill-color-gradient-render-17-0&quot;);"/></g></pattern></defs><g class="fills" id="fills-96ab3c53-ded4-806c-8007-5ec7a0e5c4a4"><path d="M1573.4288330078125,922.99365234375C1500.4854736328125,910.4052734375,1415.8214111328125,896.55859375,1366.5279541015625,852.244140625C1337.4862060546875,826.13623046875,1299.1649169921875,760.685546875,1332.1959228515625,731.08056640625C1367.2193603515625,699.6904296875,1501.4937744140625,685.17431640625,1556.9332275390625,672.76806640625C1608.8924560546875,661.140625,1668.9605712890625,636.9560546875,1721.3299560546875,632.11474609375C1842.0826416015625,620.95068359375,1848.5784912109375,719.47998046875,1914.9991455078125,766.2275390625L1914.9991455078125,772.533203125C1892.0430908203125,757.62255859375,1876.0289306640625,736.6982421875,1861.1815185546875,717.279296875C1853.0579833984375,706.65478515625,1846.1519775390625,694.9873046875,1837.9234619140625,684.5361328125C1766.3292236328125,593.5859375,1660.8397216796875,653.005859375,1560.6700439453125,675.47021484375C1504.2584228515625,688.12158203125,1374.5084228515625,701.2470703125,1338.4256591796875,732.88037109375C1311.4571533203125,756.5234375,1331.5045166015625,797.94482421875,1347.5697021484375,822.69580078125C1393.4307861328125,893.34912109375,1501.3951416015625,907.8671875,1597.1121826171875,922.99365234375L1573.4259033203125,922.99365234375Z" fill="url(#fill-0-render-17)"/></g></g><g id="shape-96ab3c53-ded4-806c-8007-5ec7a0e5c4a5"><defs><linearGradient id="fill-color-gradient-render-18-0" x1="0.5" y1="0" x2="0.5" y2="1" gradientTransform=""><stop offset="0" stop-color="#010b11" stop-opacity="1"/><stop offset="1" stop-color="#03f8c5" stop-opacity="1"/></linearGradient><pattern patternUnits="userSpaceOnUse" x="1852.1284816387451" y="39.154518423405534" width="62.87072315747446" height="292.8111466473092" patternTransform="matrix(1.000000, 0.000000, 0.000000, 1.000000, 0.000000, 0.000000)" id="fill-0-render-18"><g><rect width="62.87072315747446" height="292.8111466473092" style="fill: url(&quot;#fill-color-gradient-render-18-0&quot;);"/></g></pattern></defs><g class="fills" id="fills-96ab3c53-ded4-806c-8007-5ec7a0e5c4a5"><path d="M1914.9991455078125,39.15673828125L1914.9991455078125,44.5625C1882.8900146484375,57.255859375,1860.0445556640625,71.876953125,1857.5941162109375,99.92724609375C1854.6077880859375,134.13037109375,1867.7735595703125,190.328125,1876.7171630859375,224.9404296875C1885.0145263671875,257.05419921875,1900.3641357421875,287.71435546875,1914.9991455078125,318.4521484375L1914.9991455078125,331.9658203125C1899.7359619140625,298.5322265625,1881.5701904296875,266.1162109375,1873.0067138671875,231.22509765625C1863.5662841796875,192.77392578125,1849.3297119140625,134.3486328125,1852.6092529296875,96.3212890625C1855.1612548828125,66.72900390625,1882.2435302734375,52.7685546875,1914.9991455078125,39.154296875Z" fill="url(#fill-0-render-18)"/></g></g><g id="shape-96ab3c53-ded4-806c-8007-5ec7a0e5c4a6"><defs><linearGradient id="fill-color-gradient-render-19-0" x1="0.5" y1="0" x2="0.5" y2="1" gradientTransform=""><stop offset="0" stop-color="#010b11" stop-opacity="1"/><stop offset="1" stop-color="#03f8c5" stop-opacity="1"/></linearGradient><pattern patternUnits="userSpaceOnUse" x="1903.2163045043844" y="115.73776335548973" width="11.782900291834721" height="132.43900404437136" patternTransform="matrix(1.000000, 0.000000, 0.000000, 1.000000, 0.000000, 0.000000)" id="fill-0-render-19"><g><rect width="11.782900291834721" height="132.43900404437136" style="fill: url(&quot;#fill-color-gradient-render-19-0&quot;);"/></g></pattern></defs><g class="fills" id="fills-96ab3c53-ded4-806c-8007-5ec7a0e5c4a6"><path d="M1914.9991455078125,115.73779296875L1914.9991455078125,129.2509765625C1904.2720947265625,162.46875,1906.1781005859375,197.7353515625,1914.9991455078125,231.0595703125L1914.9991455078125,248.1767578125C1902.8419189453125,212.83642578125,1899.4188232421875,171.45703125,1907.9107666015625,135.39111328125C1909.4278564453125,128.951171875,1911.2261962890625,121.61767578125,1914.9991455078125,115.73779296875Z" fill="url(#fill-0-render-19)"/></g></g><g id="shape-96ab3c53-ded4-806c-8007-5ec7a0e5c4a7"><defs><linearGradient id="fill-color-gradient-render-20-0" x1="0.5" y1="0" x2="0.5" y2="1" gradientTransform=""><stop offset="0" stop-color="#010b11" stop-opacity="1"/><stop offset="1" stop-color="#03f8c5" stop-opacity="1"/></linearGradient><pattern patternUnits="userSpaceOnUse" x="806.6304120393861" y="38.32372410107564" width="1061.2428309409052" height="483.1575331766244" patternTransform="matrix(1.000000, 0.000000, 0.000000, 1.000000, 0.000000, 0.000000)" id="fill-0-render-20"><g><rect width="1061.2428309409052" height="483.1575331766244" style="fill: url(&quot;#fill-color-gradient-render-20-0&quot;);"/></g></pattern></defs><g class="fills" id="fills-96ab3c53-ded4-806c-8007-5ec7a0e5c4a7"><path d="M883.0565795898438,520.89794921875C853.8737182617188,522.544921875,829.1134643554688,522.06005859375,815.6666870117188,500.7666015625C799.1466674804688,474.603515625,808.0873413085938,408.517578125,820.1456909179688,380.82958984375C838.0451049804688,339.72705078125,884.8998413085938,311.07470703125,917.9874877929688,276.755859375C958.3727416992188,234.86669921875,976.8197631835938,186.9423828125,1038.2403564453125,156.44580078125C1108.9815673828125,121.31982421875,1167.6705322265625,144.89794921875,1243.7528076171875,141.900390625C1345.5108642578125,137.8935546875,1447.6431884765625,85.0439453125,1540.1737060546875,57.0146484375C1595.8553466796875,40.14892578125,1704.1158447265625,22.52783203125,1746.4761962890625,63.1962890625C1780.7906494140625,96.138671875,1813.9468994140625,158.53515625,1828.3724365234375,198.6142578125C1840.4818115234375,232.2548828125,1856.6514892578125,273.82568359375,1864.7391357421875,307.47265625C1877.5968017578125,360.95166015625,1851.0052490234375,382.1201171875,1782.8551025390625,396.38232421875C1741.9490966796875,404.94287109375,1691.1956787109375,415.38134765625,1649.7269287109375,420.89599609375C1584.2218017578125,429.60791015625,1517.0203857421875,419.7294921875,1452.2454833984375,427.728515625C1391.1480712890625,435.27392578125,1338.4256591796875,460.0078125,1278.2408447265625,470.4501953125C1221.1319580078125,480.35986328125,1165.3546142578125,474.455078125,1108.2095947265625,481.80712890625C1034.1739501953125,491.3330078125,959.0490112304688,516.6083984375,883.0536499023438,520.89599609375ZM874.3375854492188,516.396484375C959.5665893554688,513.45947265625,1040.8436279296875,484.06640625,1122.9371337890625,476.23583984375C1169.2652587890625,471.81787109375,1215.7398681640625,475.6904296875,1261.8194580078125,469.3974609375C1327.9259033203125,460.36669921875,1384.0621337890625,432.9453125,1449.7828369140625,424.15185546875C1520.6348876953125,414.669921875,1591.7081298828125,425.84033203125,1663.4190673828125,414.57763671875C1702.6527099609375,408.4169921875,1750.7191162109375,399.4384765625,1789.0877685546875,390.98046875C1842.2440185546875,379.2626953125,1869.1917724609375,358.81005859375,1861.0321044921875,316.4658203125C1855.2330322265625,286.36328125,1839.4642333984375,247.30224609375,1829.3778076171875,216.81396484375C1813.7584228515625,169.59423828125,1791.4906005859375,129.11279296875,1758.5736083984375,86.89208984375C1737.3919677734375,59.724609375,1720.7105712890625,48.69921875,1676.1177978515625,44.677734375C1526.8348388671875,31.21875,1392.9849853515625,140.4443359375,1240.0096435546875,145.5107421875C1164.9234619140625,147.99658203125,1109.1519775390625,124.8271484375,1039.4849853515625,160.05615234375C981.7897338867188,189.23095703125,961.8497924804688,236.603515625,924.2199096679688,276.76220703125C890.0973510742188,313.17626953125,841.1928100585938,341.0947265625,823.8619995117188,385.3232421875C813.3566284179688,412.1298828125,807.3153686523438,466.35986328125,818.0573120117188,492.736328125C826.3756713867188,513.16162109375,847.2013549804688,517.333984375,874.3375854492188,516.40087890625Z" fill="url(#fill-0-render-20)"/></g></g><g id="shape-96ab3c53-ded4-806c-8007-5ec7a0e5c4a8"><defs><linearGradient id="fill-color-gradient-render-21-0" x1="0.5" y1="0" x2="0.5" y2="1" gradientTransform=""><stop offset="0" stop-color="#010b11" stop-opacity="1"/><stop offset="1" stop-color="#03f8c5" stop-opacity="1"/></linearGradient><pattern patternUnits="userSpaceOnUse" x="0.21464230478022728" y="132.73193565260954" width="377.9679706512288" height="782.1457831703792" patternTransform="matrix(1.000000, 0.000000, 0.000000, 1.000000, 0.000000, 0.000000)" id="fill-0-render-21"><g><rect width="377.9679706512288" height="782.1457831703792" style="fill: url(&quot;#fill-color-gradient-render-21-0&quot;);"/></g></pattern></defs><g class="fills" id="fills-96ab3c53-ded4-806c-8007-5ec7a0e5c4a8"><path d="M0.4660016596317291,908.7587890625C45.66595458984375,886.19970703125,93.31072998046875,867.7900390625,145.09930419921875,854.27685546875C203.10589599609375,839.1416015625,276.17205810546875,830.96728515625,324.89691162109375,803.12841796875C417.97479248046875,749.94921875,351.92230224609375,678.36083984375,318.40692138671875,616.8916015625C302.96405029296875,588.56591796875,291.91424560546875,558.7177734375,268.74554443359375,532.95556640625C234.05706787109375,494.38525390625,170.35955810546875,473.46484375,146.70306396484375,430.1572265625C104.47430419921875,352.84423828125,234.84710693359375,317.55029296875,266.66595458984375,255.60888671875C285.15155029296875,219.62255859375,272.31512451171875,172.14501953125,227.50115966796875,149.2255859375C149.07879638671875,109.1171875,74.31024169921875,183.326171875,0.21453683078289032,193.216796875L1.4264508485794067,189.14501953125C77.14666748046875,177.2236328125,157.02606201171875,100.5107421875,236.40301513671875,148.19775390625C286.64178466796875,178.3818359375,290.68719482421875,234.86279296875,260.15203857421875,274.32470703125C224.41326904296875,320.51220703125,124.19305419921875,356.4267578125,146.42791748046875,418.64306640625C162.90887451171875,464.7548828125,221.33123779296875,483.13720703125,259.46380615234375,517.13916015625C294.18817138671875,548.103515625,307.46453857421875,587.49853515625,327.45819091796875,623.8623046875C353.03240966796875,670.37890625,403.02899169921875,728.03857421875,363.49310302734375,777.86572265625C323.87664794921875,827.79345703125,222.84246826171875,838.275390625,153.82440185546875,856.07666015625C99.26507568359375,870.1484375,46.51580810546875,889.07373046875,0.8219587206840515,914.87744140625L0.4660016596317291,908.7568359375Z" fill="url(#fill-0-render-21)"/></g></g><g id="shape-96ab3c53-ded4-806c-8007-5ec7a0e5c4a9"><defs><linearGradient id="fill-color-gradient-render-22-0" x1="0.5" y1="0" x2="0.5" y2="1" gradientTransform=""><stop offset="0" stop-color="#010b11" stop-opacity="1"/><stop offset="1" stop-color="#03f8c5" stop-opacity="1"/></linearGradient><pattern patternUnits="userSpaceOnUse" x="0.14416833778932414" y="182.9307901825705" width="325.44253461434664" height="679.7013162496423" patternTransform="matrix(1.000000, 0.000000, 0.000000, 1.000000, 0.000000, 0.000000)" id="fill-0-render-22"><g><rect width="325.44253461434664" height="679.7013162496423" style="fill: url(&quot;#fill-color-gradient-render-22-0&quot;);"/></g></pattern></defs><g class="fills" id="fills-96ab3c53-ded4-806c-8007-5ec7a0e5c4a9"><path d="M0.19964425265789032,243.67919921875L0.19964425265789032,239.1650390625C27.560239791870117,239.775390625,52.22186279296875,232.11474609375,74.14862060546875,220.984375C105.76409912109375,204.9365234375,138.74090576171875,177.98095703125,182.26824951171875,183.71826171875C201.77752685546875,186.2900390625,218.91961669921875,203.421875,220.84051513671875,217.107421875C226.92987060546875,260.48388671875,165.65277099609375,284.74609375,134.32147216796875,314.92822265625C117.87664794921875,330.77001953125,106.26678466796875,349.353515625,100.32440185546875,368.74072265625C71.56341552734375,462.556640625,205.61346435546875,497.921875,257.22259521484375,567.4150390625C278.55389404296875,596.13671875,315.29217529296875,660.798828125,322.71551513671875,692.166015625C346.14129638671875,791.16748046875,221.35833740234375,800.76220703125,125.16229248046875,823.654296875C82.05096435546875,833.91455078125,39.96575927734375,846.89501953125,0.22064034640789032,862.63232421875C0.23260323703289032,861.3671875,-0.06964285671710968,859.98486328125,0.4508649408817291,858.75341796875C1.1959820985794067,856.9912109375,22.997251510620117,848.953125,27.186216354370117,847.4443359375C89.30096435546875,825.07470703125,152.70550537109375,816.2138671875,217.06756591796875,799.98193359375C306.83905029296875,777.34130859375,339.39105224609375,738.01318359375,309.70550537109375,670.03271484375C296.15399169921875,638.9990234375,273.09295654296875,595.314453125,251.42376708984375,567.1025390625C209.19183349609375,512.1171875,118.23553466796875,481.56396484375,95.84197998046875,418.267578125C82.75994873046875,381.291015625,101.44647216796875,338.328125,133.64520263671875,309.03564453125C164.61737060546875,280.859375,243.76092529296875,245.03857421875,206.92108154296875,202.84521484375C166.91229248046875,157.02294921875,91.37176513671875,222.09375,51.76116943359375,235.44140625C35.97430419921875,240.76123046875,17.679868698120117,244.310546875,0.19671456515789032,243.68359375Z" fill="url(#fill-0-render-22)"/></g></g><g id="shape-96ab3c53-ded4-806c-8007-5ec7a0e5c4aa"><defs><linearGradient id="fill-color-gradient-render-23-0" x1="0.5" y1="0" x2="0.5" y2="1" gradientTransform=""><stop offset="0" stop-color="#010b11" stop-opacity="1"/><stop offset="1" stop-color="#03f8c5" stop-opacity="1"/></linearGradient><pattern patternUnits="userSpaceOnUse" x="0" y="307.6322128441752" width="277.0174409914198" height="501.83130866723513" patternTransform="matrix(1.000000, 0.000000, 0.000000, 1.000000, 0.000000, 0.000000)" id="fill-0-render-23"><g><rect width="277.0174409914198" height="501.83130866723513" style="fill: url(&quot;#fill-color-gradient-render-23-0&quot;);"/></g></pattern></defs><g class="fills" id="fills-96ab3c53-ded4-806c-8007-5ec7a0e5c4aa"><path d="M0.3493024408817291,804.1669921875C53.46649169921875,788.45263671875,111.25164794921875,784.2763671875,166.27215576171875,773.1796875C250.27166748046875,756.23828125,290.41790771484375,723.41552734375,263.85931396484375,658.11572265625C255.91522216796875,638.58203125,241.79193115234375,612.12744140625,229.22479248046875,593.953125C181.58026123046875,525.04931640625,79.44183349609375,491.1943359375,50.42352294921875,411.44580078125C39.22674560546875,380.67041015625,42.39544677734375,343.6455078125,10.842954635620117,319.32470703125C6.181089401245117,315.7314453125,-2.7835099697113037,313.97998046875,0.8429548144340515,307.63232421875C48.61346435546875,328.923828125,41.97967529296875,372.11376953125,53.18524169921875,406.7490234375C79.61834716796875,488.45068359375,184.63201904296875,520.95068359375,232.54901123046875,590.64892578125C246.33709716796875,610.703125,261.49554443359375,639.28466796875,270.09490966796875,660.8173828125C289.51434326171875,709.45703125,268.41912841796875,749.52783203125,202.47161865234375,768.703125C138.12152099609375,787.41455078125,63.94525146484375,787.30126953125,0.8219587206840515,809.46337890625L0.3522321283817291,804.16455078125Z" fill="url(#fill-0-render-23)"/></g></g><g id="shape-96ab3c53-ded4-806c-8007-5ec7a0e5c4ab"><defs><linearGradient id="fill-color-gradient-render-24-0" x1="0.5" y1="0" x2="0.5" y2="1" gradientTransform=""><stop offset="0" stop-color="#010b11" stop-opacity="1"/><stop offset="1" stop-color="#03f8c5" stop-opacity="1"/></linearGradient><pattern patternUnits="userSpaceOnUse" x="0.2116501022992452" y="396.8247915201582" width="225.34213284784346" height="348.6773789524932" patternTransform="matrix(1.000000, 0.000000, 0.000000, 1.000000, 0.000000, 0.000000)" id="fill-0-render-24"><g><rect width="225.34213284784346" height="348.6773789524932" style="fill: url(&quot;#fill-color-gradient-render-24-0&quot;);"/></g></pattern></defs><g class="fills" id="fills-96ab3c53-ded4-806c-8007-5ec7a0e5c4ab"><path d="M0.21160714328289032,745.501953125L0.3283063471317291,741.0888671875C35.55828857421875,732.96826171875,71.92840576171875,736.64990234375,108.08905029296875,735.63232421875C153.80364990234375,734.3447265625,204.60491943359375,727.8876953125,217.46844482421875,690.35107421875C238.47650146484375,629.0478515625,146.52069091796875,557.7529296875,97.93646240234375,513.1513671875C65.90203857421875,483.74365234375,31.336362838745117,457.43798828125,9.960142135620117,422.6708984375C5.076841354370117,414.728515625,-1.6672991514205933,405.70849609375,0.8309919238090515,396.82470703125C10.582700729370117,417.70751953125,23.936704635620117,437.8017578125,41.06097412109375,456.0517578125C74.26824951171875,491.4462890625,119.39959716796875,526.34814453125,156.52655029296875,559.99951171875C193.73431396484375,593.724609375,242.62957763671875,653.3515625,219.63763427734375,697.32177734375C186.47821044921875,760.7421875,68.98406982421875,728.4794921875,0.21160714328289032,745.498046875Z" fill="url(#fill-0-render-24)"/></g></g><g id="shape-96ab3c53-ded4-806c-8007-5ec7a0e63e21"><defs><linearGradient id="fill-color-gradient-render-25-0" x1="0.5" y1="0" x2="0.5" y2="1" gradientTransform=""><stop offset="0" stop-color="#010b11" stop-opacity="1"/><stop offset="1" stop-color="#03f8c5" stop-opacity="1"/></linearGradient><pattern patternUnits="userSpaceOnUse" x="0.09724841790557548" y="466.21289531661205" width="158.67399995911728" height="220.95776057349394" patternTransform="matrix(1.000000, 0.000000, 0.000000, 1.000000, 0.000000, 0.000000)" id="fill-0-render-25"><g><rect width="158.67399995911728" height="220.95776057349394" style="fill: url(&quot;#fill-color-gradient-render-25-0&quot;);"/></g></pattern></defs><g class="fills" id="fills-96ab3c53-ded4-806c-8007-5ec7a0e63e21"><path d="M0.3583356440067291,675.1259765625L0.20281808078289032,671.63134765625C30.301206588745117,673.974609375,60.15423583984375,681.2890625,90.59661865234375,682.43017578125C211.93890380859375,686.97412109375,127.83148193359375,592.140625,96.71282958984375,556.380859375C75.93792724609375,532.5068359375,53.34393310546875,510.4619140625,27.024595260620117,489.62353515625C21.498228073120117,485.24755859375,4.364683151245117,475.0234375,1.3844586610794067,471.2158203125C0.0021344837732613087,469.44970703125,-0.03375418856739998,468.16796875,0.21746651828289032,466.212890625C46.91961669921875,496.5439453125,82.98162841796875,533.0712890625,115.41082763671875,571.70068359375C133.76483154296875,593.56494140625,156.39495849609375,620.7158203125,158.58221435546875,646.81103515625C164.01898193359375,711.59033203125,50.81561279296875,680.18359375,0.3551618158817291,675.13037109375Z" fill="url(#fill-0-render-25)"/></g></g><g id="shape-96ab3c53-ded4-806c-8007-5ec7a0e63e22"><defs><linearGradient id="fill-color-gradient-render-26-0" x1="0.5" y1="0" x2="0.5" y2="1" gradientTransform=""><stop offset="0" stop-color="#010b11" stop-opacity="1"/><stop offset="1" stop-color="#03f8c5" stop-opacity="1"/></linearGradient><pattern patternUnits="userSpaceOnUse" x="1157.0511550601968" y="0.33379263884580723" width="341.57916889190665" height="80.47406908740777" patternTransform="matrix(1.000000, 0.000000, 0.000000, 1.000000, 0.000000, 0.000000)" id="fill-0-render-26"><g><rect width="341.57916889190665" height="80.47406908740777" style="fill: url(&quot;#fill-color-gradient-render-26-0&quot;);"/></g></pattern></defs><g class="fills" id="fills-96ab3c53-ded4-806c-8007-5ec7a0e63e22"><path d="M1157.0540771484375,0.412109375L1164.5465087890625,0.412109375C1165.1986083984375,27.73046875,1179.1243896484375,50.541015625,1212.3199462890625,64.5390625C1291.6099853515625,97.96826171875,1401.5963134765625,57.32275390625,1464.3157958984375,19.314453125C1470.7342529296875,15.42529296875,1485.6173095703125,3.2626953125,1490.4586181640625,1.27001953125C1493.3043212890625,0.09716796875,1495.5484619140625,0.3134765625,1498.6302490234375,0.4267578125C1473.4300537109375,20.10107421875,1442.5357666015625,37.1259765625,1410.5045166015625,50.6982421875C1353.6168212890625,74.80322265625,1270.8917236328125,94.380859375,1209.0343017578125,68.71533203125C1173.4542236328125,53.95166015625,1157.1678466796875,29.771484375,1157.0511474609375,0.4140625Z" fill="url(#fill-0-render-26)"/></g></g><g id="shape-96ab3c53-ded4-806c-8007-5ec7a0e63e23"><defs><linearGradient id="fill-color-gradient-render-27-0" x1="0.5" y1="0" x2="0.5" y2="1" gradientTransform=""><stop offset="0" stop-color="#010b11" stop-opacity="1"/><stop offset="1" stop-color="#03f8c5" stop-opacity="1"/></linearGradient><pattern patternUnits="userSpaceOnUse" x="296.904999702836" y="0.09796606374675321" width="168.2985664367675" height="22.218700171039018" patternTransform="matrix(1.000000, 0.000000, 0.000000, 1.000000, 0.000000, 0.000000)" id="fill-0-render-27"><g><rect width="168.2985664367675" height="22.218700171039018" style="fill: url(&quot;#fill-color-gradient-render-27-0&quot;);"/></g></pattern></defs><g class="fills" id="fills-96ab3c53-ded4-806c-8007-5ec7a0e63e23"><path d="M296.90496826171875,0.42041015625C307.22186279296875,-1.11083984375,306.56976318359375,3.0908203125,311.83319091796875,7.19189453125C334.00213623046875,24.4599609375,395.56048583984375,13.8642578125,424.32147216796875,8.267578125C433.75555419921875,6.43212890625,446.96917724609375,1.7919921875,454.87152099609375,0.615234375C456.36444091796875,0.39306640625,465.17059326171875,-0.0263671875,465.20355224609375,0.865234375C437.30731201171875,12.4755859375,400.35687255859375,18.208984375,368.40936279296875,21.013671875C338.14642333984375,23.67138671875,309.22381591796875,24.529296875,296.90496826171875,0.41796875Z" fill="url(#fill-0-render-27)"/></g></g><g id="shape-96ab3c53-ded4-806c-8007-5ec7a0e63e24"><defs><linearGradient id="fill-color-gradient-render-28-0" x1="0.5" y1="0" x2="0.5" y2="1" gradientTransform=""><stop offset="0" stop-color="#010b11" stop-opacity="1"/><stop offset="1" stop-color="#03f8c5" stop-opacity="1"/></linearGradient><pattern patternUnits="userSpaceOnUse" x="0.21464230478022728" y="0.3587006868483513" width="213.23145231459785" height="100.961496321509" patternTransform="matrix(1.000000, 0.000000, 0.000000, 1.000000, 0.000000, 0.000000)" id="fill-0-render-28"><g><rect width="213.23145231459785" height="100.961496321509" style="fill: url(&quot;#fill-color-gradient-render-28-0&quot;);"/></g></pattern></defs><g class="fills" id="fills-96ab3c53-ded4-806c-8007-5ec7a0e63e24"><path d="M0.21453683078289032,101.3203125L0.9508649706840515,97.6259765625C33.64642333984375,90.2255859375,64.66326904296875,79.23974609375,94.54046630859375,67.24072265625C126.92181396484375,54.2373046875,169.89276123046875,35.09326171875,194.07244873046875,14.84423828125C197.22918701171875,12.19873046875,205.73309326171875,2.26416015625,207.68377685546875,1.25732421875C209.55389404296875,0.29443359375,211.19964599609375,0.2861328125,213.37225341796875,0.42041015625C214.55706787109375,1.15673828125,201.14300537109375,13.9169921875,199.62908935546875,15.25537109375C177.76507568359375,34.587890625,140.51824951171875,51.818359375,110.74627685546875,64.5390625C75.87200927734375,79.43896484375,38.88275146484375,92.37744140625,0.21453683078289032,101.3203125Z" fill="url(#fill-0-render-28)"/></g></g><g id="shape-96ab3c53-ded4-806c-8007-5ec7a0e63e25"><defs><linearGradient id="fill-color-gradient-render-29-0" x1="0.5" y1="0" x2="0.5" y2="1" gradientTransform=""><stop offset="0" stop-color="#010b11" stop-opacity="1"/><stop offset="1" stop-color="#03f8c5" stop-opacity="1"/></linearGradient><pattern patternUnits="userSpaceOnUse" x="1260.2108939195955" y="0.14157333635921532" width="133.71682840897256" height="33.346669149482295" patternTransform="matrix(1.000000, 0.000000, 0.000000, 1.000000, 0.000000, 0.000000)" id="fill-0-render-29"><g><rect width="133.71682840897256" height="33.346669149482295" style="fill: url(&quot;#fill-color-gradient-render-29-0&quot;);"/></g></pattern></defs><g class="fills" id="fills-96ab3c53-ded4-806c-8007-5ec7a0e63e25"><path d="M1260.5211181640625,0.412109375L1268.0133056640625,0.412109375C1266.6309814453125,29.35205078125,1312.7017822265625,32.11474609375,1342.1031494140625,25.58837890625C1356.3697509765625,22.4208984375,1367.8807373046875,17.01953125,1377.6712646484375,8.94970703125C1382.9703369140625,4.58203125,1384.2239990234375,-2.08837890625,1393.9276123046875,0.87744140625C1379.5772705078125,19.33544921875,1355.8101806640625,29.71875,1327.0523681640625,32.7314453125C1295.2481689453125,36.060546875,1256.3409423828125,28.95751953125,1260.5211181640625,0.4140625Z" fill="url(#fill-0-render-29)"/></g></g><g id="shape-96ab3c53-ded4-806c-8007-5ec7a0e63e26"><defs><linearGradient id="fill-color-gradient-render-30-0" x1="0.5" y1="0" x2="0.5" y2="1" gradientTransform=""><stop offset="0" stop-color="#010b11" stop-opacity="1"/><stop offset="1" stop-color="#03f8c5" stop-opacity="1"/></linearGradient><pattern patternUnits="userSpaceOnUse" x="0.21763448942692776" y="503.1473142558052" width="55.36823302722678" height="108.99705355551032" patternTransform="matrix(1.000000, 0.000000, 0.000000, 1.000000, 0.000000, 0.000000)" id="fill-0-render-30"><g><rect width="55.36823302722678" height="108.99705355551032" style="fill: url(&quot;#fill-color-gradient-render-30-0&quot;);"/></g></pattern></defs><g class="fills" id="fills-96ab3c53-ded4-806c-8007-5ec7a0e63e26"><path d="M0.3820172846317291,607.78955078125C1.1481305360794067,606.88330078125,20.480649948120117,606.3125,25.145444869995117,605.41064453125C37.78753662109375,602.97119140625,47.41644287109375,597.2802734375,48.81072998046875,587.376953125C52.75140380859375,559.40771484375,22.721860885620117,529.8154296875,0.8788434863090515,508.517578125L0.21746651828289032,503.1474609375C6.656919479370117,507.23779296875,11.776548385620117,512.6982421875,16.686704635620117,517.8125C34.37347412109375,536.22607421875,69.93572998046875,579.0380859375,49.36737060546875,600.390625C37.99993896484375,612.1904296875,18.116880416870117,610.01953125,0.8038923144340515,612.14453125L0.3793317377567291,607.78515625Z" fill="url(#fill-0-render-30)"/></g></g><g id="shape-96ab3c53-ded4-806c-8007-5ec7a0e63e27"><defs><linearGradient id="fill-color-gradient-render-31-0" x1="0.5" y1="0" x2="0.5" y2="1" gradientTransform=""><stop offset="0" stop-color="#010b11" stop-opacity="1"/><stop offset="1" stop-color="#03f8c5" stop-opacity="1"/></linearGradient><pattern patternUnits="userSpaceOnUse" x="1755.4348161396038" y="0" width="125.92024993896439" height="12.014933005420062" patternTransform="matrix(1.000000, 0.000000, 0.000000, 1.000000, 0.000000, 0.000000)" id="fill-0-render-31"><g><rect width="125.92024993896439" height="12.014933005420062" style="fill: url(&quot;#fill-color-gradient-render-31-0&quot;);"/></g></pattern></defs><g class="fills" id="fills-96ab3c53-ded4-806c-8007-5ec7a0e63e27"><path d="M1755.4349365234375,0.42431640625C1765.9793701171875,-1.44873046875,1770.5633544921875,3.3779296875,1779.3751220703125,5.18603515625C1791.4696044921875,7.66796875,1807.0919189453125,6.708984375,1819.6231689453125,5.8134765625C1840.3353271484375,4.33251953125,1860.3975830078125,-1.42578125,1881.3551025390625,0.8671875C1859.0003662109375,5.7421875,1835.4967041015625,9.625,1812.1485595703125,11.2236328125C1792.5438232421875,12.56591796875,1767.7535400390625,13.8203125,1755.4349365234375,0.4267578125Z" fill="url(#fill-0-render-31)"/></g></g><g id="shape-96ab3c53-ded4-806c-8007-5ec7a0e63e28"><defs><linearGradient id="fill-color-gradient-render-32-0" x1="0.5" y1="0" x2="0.5" y2="1" gradientTransform=""><stop offset="0" stop-color="#010b11" stop-opacity="1"/><stop offset="1" stop-color="#03f8c5" stop-opacity="1"/></linearGradient><pattern patternUnits="userSpaceOnUse" x="0.19968136371335277" y="0.3561557168932268" width="127.16198254372011" height="40.60868866798319" patternTransform="matrix(1.000000, 0.000000, 0.000000, 1.000000, 0.000000, 0.000000)" id="fill-0-render-32"><g><rect width="127.16198254372011" height="40.60868866798319" style="fill: url(&quot;#fill-color-gradient-render-32-0&quot;);"/></g></pattern></defs><g class="fills" id="fills-96ab3c53-ded4-806c-8007-5ec7a0e63e28"><path d="M0.19964425265789032,40.96484375L0.19964425265789032,35.55078125C19.633970260620117,37.31494140625,39.78045654296875,32.2236328125,57.88323974609375,27.2353515625C72.93377685546875,23.08837890625,87.35028076171875,17.75341796875,100.84490966796875,11.435546875C105.71307373046875,9.1552734375,116.25457763671875,2.08154296875,119.90521240234375,0.8857421875C122.31365966796875,0.09716796875,124.85125732421875,0.42041015625,127.36151123046875,0.4287109375C111.60491943359375,10.94873046875,92.93646240234375,20.2333984375,73.34979248046875,26.70263671875C51.27630615234375,33.9921875,24.505064010620117,40.765625,0.19964425265789032,40.96484375Z" fill="url(#fill-0-render-32)"/></g></g><g id="shape-96ab3c53-ded4-806c-8007-5ec7a0e63e29"><defs><linearGradient id="fill-color-gradient-render-33-0" x1="0.5" y1="0" x2="0.5" y2="1" gradientTransform=""><stop offset="0" stop-color="#010b11" stop-opacity="1"/><stop offset="1" stop-color="#03f8c5" stop-opacity="1"/></linearGradient><pattern patternUnits="userSpaceOnUse" x="881.2717117215038" y="77.59055890212403" width="923.191999469203" height="384.94856875124424" patternTransform="matrix(1.000000, 0.000000, 0.000000, 1.000000, 0.000000, 0.000000)" id="fill-0-render-33"><g><rect width="923.191999469203" height="384.94856875124424" style="fill: url(&quot;#fill-color-gradient-render-33-0&quot;);"/></g></pattern></defs><g class="fills" id="fills-96ab3c53-ded4-806c-8007-5ec7a0e63e29"><path d="M962.8463745117188,462.34033203125C912.5294799804688,464.5263671875,878.0568237304688,448.7744140625,881.5097045898438,409.86181640625C885.1659545898438,368.67138671875,920.3092651367188,335.974609375,947.8463745117188,301.93896484375C971.7599487304688,272.38232421875,996.9093627929688,234.7724609375,1028.0191650390625,209.423828125C1102.2403564453125,148.95068359375,1186.8804931640625,184.65625,1280.4849853515625,168.44921875C1401.3780517578125,147.51806640625,1561.7564697265625,32.5634765625,1687.2637939453125,96.984375C1743.1578369140625,125.67236328125,1795.1173095703125,215.634765625,1802.6512451171875,264.056640625C1812.8787841796875,329.76708984375,1780.0574951171875,351.71142578125,1698.0865478515625,370.25537109375C1615.2896728515625,388.9853515625,1543.1839599609375,383.78759765625,1459.3756103515625,387.8359375C1381.2198486328125,391.61181640625,1334.3624267578125,425.037109375,1263.2916259765625,438.92578125C1202.2750244140625,450.84912109375,1141.4288330078125,445.53369140625,1079.1556396484375,449.99755859375C1040.7298583984375,452.751953125,1000.8261108398438,460.69189453125,962.8463745117188,462.34033203125ZM971.5685424804688,456.9326171875C1010.1495971679688,454.990234375,1049.9844970703125,447.8662109375,1089.1285400390625,445.49365234375C1149.9298095703125,441.80810546875,1209.5372314453125,446.85107421875,1268.9620361328125,434.01513671875C1313.1446533203125,424.47265625,1348.3209228515625,405.0166015625,1390.7767333984375,394.11669921875C1459.0584716796875,376.58837890625,1538.6749267578125,386.0595703125,1611.2891845703125,379.6025390625C1666.9825439453125,374.64990234375,1769.9407958984375,360.34765625,1792.5318603515625,317.787109375C1819.9884033203125,266.06201171875,1765.9163818359375,175.59814453125,1724.5433349609375,132.20703125C1607.0311279296875,8.96435546875,1421.6143798828125,144.3759765625,1288.2227783203125,170.43994140625C1229.3394775390625,181.94580078125,1182.6705322265625,172.9404296875,1125.2921142578125,176.1162109375C1033.2164306640625,181.21142578125,992.8756713867188,253.7041015625,952.8312377929688,303.74072265625C933.4899291992188,327.90673828125,907.3024291992188,352.98681640625,895.8988647460938,379.72021484375C873.8825073242188,431.33642578125,891.1984252929688,460.97705078125,971.5685424804688,456.9326171875Z" fill="url(#fill-0-render-33)"/></g></g><g id="shape-96ab3c53-ded4-806c-8007-5ec7a0e63e2a"><defs><linearGradient id="fill-color-gradient-render-34-0" x1="0.5" y1="0" x2="0.5" y2="1" gradientTransform=""><stop offset="0" stop-color="#010b11" stop-opacity="1"/><stop offset="1" stop-color="#03f8c5" stop-opacity="1"/></linearGradient><pattern patternUnits="userSpaceOnUse" x="971.1016902656452" y="107.70147502145664" width="773.71570284474" height="307.3858335297691" patternTransform="matrix(1.000000, 0.000000, 0.000000, 1.000000, 0.000000, 0.000000)" id="fill-0-render-34"><g><rect width="773.71570284474" height="307.3858335297691" style="fill: url(&quot;#fill-color-gradient-render-34-0&quot;);"/></g></pattern></defs><g class="fills" id="fills-96ab3c53-ded4-806c-8007-5ec7a0e63e2a"><path d="M1181.0035400390625,413.6904296875C1138.3946533203125,415.55126953125,1046.2354736328125,416.98828125,1007.4537963867188,408.1083984375C943.8187866210938,393.5400390625,979.0817260742188,336.0185546875,998.5221557617188,306.13232421875C1027.6151123046875,261.40087890625,1069.1676025390625,212.61865234375,1145.1568603515625,209.39404296875C1217.3226318359375,206.333984375,1251.7059326171875,218.78564453125,1321.2022705078125,191.572265625C1419.9029541015625,152.923828125,1572.8333740234375,57.43408203125,1676.2913818359375,140.9521484375C1728.4542236328125,183.0595703125,1784.2586669921875,281.091796875,1705.9827880859375,322.8046875C1620.3343505859375,368.44482421875,1495.5303955078125,344.9736328125,1398.2215576171875,349.041015625C1336.1304931640625,351.6357421875,1302.9920654296875,386.134765625,1250.1617431640625,402.40478515625C1228.3548583984375,409.11962890625,1204.6539306640625,412.65625,1181.0064697265625,413.6884765625ZM1118.7901611328125,409.939453125C1162.9459228515625,409.791015625,1207.7415771484375,410.72412109375,1248.9022216796875,397.89453125C1292.1304931640625,384.4208984375,1326.0557861328125,355.330078125,1372.6800537109375,347.70458984375C1416.6802978515625,340.5078125,1463.4273681640625,347.22216796875,1507.9298095703125,348.22314453125C1601.1546630859375,350.318359375,1754.0794677734375,343.39208984375,1739.0733642578125,249.64306640625C1730.8150634765625,198.0498046875,1673.8529052734375,116.30859375,1592.7974853515625,112.1025390625C1490.0875244140625,106.77197265625,1405.2081298828125,163.20703125,1321.2022705078125,196.080078125C1269.4647216796875,216.3251953125,1237.8760986328125,214.3427734375,1181.4195556640625,213.00634765625C1081.3546142578125,210.63623046875,1045.0833740234375,245.29248046875,1005.1495971679688,305.51953125C990.1705932617188,328.1103515625,958.6542358398438,376.552734375,991.3678588867188,396.31298828125C1016.2599487304688,411.34912109375,1086.7886962890625,410.05078125,1118.7901611328125,409.94384765625Z" fill="url(#fill-0-render-34)"/></g></g><g id="shape-96ab3c53-ded4-806c-8007-5ec7a0e63e2b"><defs><linearGradient id="fill-color-gradient-render-35-0" x1="0.5" y1="0" x2="0.5" y2="1" gradientTransform=""><stop offset="0" stop-color="#010b11" stop-opacity="1"/><stop offset="1" stop-color="#03f8c5" stop-opacity="1"/></linearGradient><pattern patternUnits="userSpaceOnUse" x="1356.2843147621984" y="137.25680143433055" width="333.33340710343055" height="183.17825981131773" patternTransform="matrix(1.000000, 0.000000, 0.000000, 1.000000, 0.000000, 0.000000)" id="fill-0-render-35"><g><rect width="333.33340710343055" height="183.17825981131773" style="fill: url(&quot;#fill-color-gradient-render-35-0&quot;);"/></g></pattern></defs><g class="fills" id="fills-96ab3c53-ded4-806c-8007-5ec7a0e63e2b"><path d="M1579.9161376953125,319.98779296875C1520.2310791015625,323.15966796875,1445.0521240234375,309.14892578125,1393.0809326171875,287.974609375C1370.2384033203125,278.6689453125,1354.0447998046875,270.85302734375,1356.5372314453125,249.54443359375C1362.8536376953125,195.56201171875,1500.4046630859375,133.07958984375,1570.1495361328125,137.4765625C1633.1649169921875,141.44921875,1671.9556884765625,190.31787109375,1685.9739990234375,230.3544921875C1704.7230224609375,283.91552734375,1648.3651123046875,316.34814453125,1579.9161376953125,319.98779296875ZM1582.4027099609375,316.3818359375C1624.1019287109375,313.72802734375,1676.3092041015625,294.5380859375,1684.0592041015625,261.91455078125C1692.3265380859375,227.10107421875,1649.8345947265625,165.98828125,1605.8641357421875,149.5068359375C1532.4061279296875,121.97216796875,1410.7916259765625,177.83837890625,1375.0020751953125,225.0517578125C1350.0023193359375,258.03173828125,1371.0164794921875,273.21923828125,1410.5311279296875,288.87646484375C1457.8077392578125,307.611328125,1528.6241455078125,319.80517578125,1582.4027099609375,316.3818359375Z" fill="url(#fill-0-render-35)"/></g></g><g id="shape-96ab3c53-ded4-806c-8007-5ec7a0e63e2c"><defs><linearGradient id="fill-color-gradient-render-36-0" x1="0.5" y1="0" x2="0.5" y2="1" gradientTransform=""><stop offset="0" stop-color="#010b11" stop-opacity="1"/><stop offset="1" stop-color="#03f8c5" stop-opacity="1"/></linearGradient><pattern patternUnits="userSpaceOnUse" x="1063.6819241517455" y="258.367081982763" width="195.02720265416656" height="113.00408659378718" patternTransform="matrix(1.000000, 0.000000, 0.000000, 1.000000, 0.000000, 0.000000)" id="fill-0-render-36"><g><rect width="195.02720265416656" height="113.00408659378718" style="fill: url(&quot;#fill-color-gradient-render-36-0&quot;);"/></g></pattern></defs><g class="fills" id="fills-96ab3c53-ded4-806c-8007-5ec7a0e63e2c"><path d="M1147.3145751953125,371.37109375C1085.1041259765625,371.6376953125,1045.0384521484375,347.29150390625,1072.4678955078125,301.013671875C1101.5343017578125,251.9736328125,1165.8243408203125,250.16748046875,1226.0718994140625,270.830078125C1262.3162841796875,283.26123046875,1265.7779541015625,296.92138671875,1249.1326904296875,323.28125C1230.3360595703125,353.0498046875,1192.8885498046875,371.17626953125,1147.3145751953125,371.37109375ZM1161.0787353515625,366.85693359375C1198.6934814453125,363.970703125,1235.5989990234375,339.98291015625,1246.5145263671875,314.18359375C1256.0506591796875,291.6455078125,1243.4686279296875,284.6767578125,1218.1695556640625,274.740234375C1163.3614501953125,253.21337890625,1099.8404541015625,260.2470703125,1076.3277587890625,305.60791015625C1052.7464599609375,351.0966796875,1106.1002197265625,371.07763671875,1161.0787353515625,366.85888671875Z" fill="url(#fill-0-render-36)"/></g></g><g id="shape-96ab3c53-ded4-806c-8007-5ec7a0e63e2d"><defs><linearGradient id="fill-color-gradient-render-37-0" x1="0.5" y1="0" x2="0.5" y2="1" gradientTransform=""><stop offset="0" stop-color="#010b11" stop-opacity="1"/><stop offset="1" stop-color="#03f8c5" stop-opacity="1"/></linearGradient><pattern patternUnits="userSpaceOnUse" x="1461.911342751147" y="176.29501214553602" width="166.98446395854353" height="106.24347003821094" patternTransform="matrix(1.000000, 0.000000, 0.000000, 1.000000, 0.000000, 0.000000)" id="fill-0-render-37"><g><rect width="166.98446395854353" height="106.24347003821094" style="fill: url(&quot;#fill-color-gradient-render-37-0&quot;);"/></g></pattern></defs><g class="fills" id="fills-96ab3c53-ded4-806c-8007-5ec7a0e63e2d"><path d="M1572.4324951171875,282.14501953125C1540.7332763671875,284.28466796875,1506.2542724609375,277.70849609375,1482.4095458984375,262.15576171875C1419.4268798828125,221.07666015625,1515.7545166015625,156.29931640625,1580.4996337890625,182.25390625C1638.4610595703125,205.48828125,1654.1790771484375,276.6259765625,1572.4324951171875,282.14501953125ZM1568.6983642578125,278.54736328125C1665.3699951171875,271.94189453125,1618.5509033203125,177.7587890625,1542.8248291015625,180.56982421875C1504.1568603515625,182.00439453125,1452.2183837890625,215.8720703125,1473.4718017578125,245.189453125C1489.5518798828125,267.36865234375,1535.3111572265625,280.82958984375,1568.6983642578125,278.54736328125Z" fill="url(#fill-0-render-37)"/></g></g></g></svg>