<svg width="1915" xmlns="http://www.w3.org/2000/svg" height="923" id="screenshot-d5580eb7-7b62-8069-8007-3bf508458fba" viewBox="0 0 1915 923" xmlns:xlink="http://www.w3.org/1999/xlink" fill="none" version="1.1"><g id="shape-d5580eb7-7b62-8069-8007-3bf508458fba" rx="0" ry="0" style="opacity: 0.07; fill: rgb(0, 0, 0);"><g id="shape-d5580eb7-7b62-8069-8007-3bf508458fbb" style="display: none;"><defs><linearGradient id="fill-color-gradient-render-2-0" x1="0.5" y1="0" x2="0.5" y2="1" gradientTransform=""><stop offset="0" stop-color="#010b11" stop-opacity="1"/><stop offset="1" stop-color="#03f8c5" stop-opacity="1"/></linearGradient><pattern patternUnits="userSpaceOnUse" x="0" y="0.0007364444056747743" width="1915" height="922.9930154894164" id="fill-0-render-2"><g><rect width="1915" height="922.9930154894164" style="fill: url(&quot;#fill-color-gradient-render-2-0&quot;);"/></g></pattern></defs><g class="fills" id="fills-d5580eb7-7b62-8069-8007-3bf508458fbb"><rect rx="0" ry="0" x="0" y="0.0007364444056747743" transform="matrix(1.000000, 0.000000, 0.000000, 1.000000, 0.000000, 0.000000)" width="1915" height="922.9930154894164" fill="none"/></g></g><g id="shape-d5580eb7-7b62-8069-8007-3bf508458fbc" rx="0" ry="0" style="fill: rgb(0, 0, 0);"><g id="shape-d5580eb7-7b62-8069-8007-3bf508458fbd"><defs><linearGradient id="fill-color-gradient-render-4-0" x1="0.5" y1="0" x2="0.5" y2="1" gradientTransform=""><stop offset="0" stop-color="#010b11" stop-opacity="1"/><stop offset="1" stop-color="#03f8c5" stop-opacity="1"/></linearGradient><pattern patternUnits="userSpaceOnUse" x="731.4196977423999" y="0.209884324797315" width="1183.5803022576001" height="611.3457563110542" patternTransform="matrix(1.000000, 0.000000, 0.000000, 1.000000, 0.000000, 0.000000)" id="fill-0-render-4"><g><rect width="1183.5803022576001" height="611.3457563110542" style="fill: url(&quot;#fill-color-gradient-render-4-0&quot;);"/></g></pattern></defs><g class="fills" id="fills-d5580eb7-7b62-8069-8007-3bf508458fbd"><path d="M1915,398.6392822265625C1902.232421875,410.4725341796875,1884.461669921875,417.5816650390625,1865.08447265625,422.47772216796875C1831.15283203125,431.04901123046875,1793.110107421875,434.08642578125,1758.21826171875,441.64453125C1694.568603515625,455.4327392578125,1638.001220703125,484.223876953125,1569.22265625,478.7110595703125C1547.1285400390625,476.940673828125,1524.0018310546875,471.64385986328125,1501.808837890625,470.67266845703125C1426.9622802734375,467.38970947265625,1369.476318359375,490.0093994140625,1299.1898193359375,501.81109619140625C1239.7410888671875,511.7940673828125,1175.57373046875,509.7069091796875,1120.0654296875,527.3170776367188C1081.529052734375,539.5426025390625,1046.8856201171875,559.7708129882812,1009.16015625,571.4949340820312C958.0654296875,587.3746337890625,948.146484375,567.6646118164062,907.135498046875,569.8356323242188C866.8875732421875,571.96484375,834.0572509765625,603.6591186523438,788.1063232421875,609.9459838867188C728.0770263671875,618.1585693359375,725.8807373046875,594.0096435546875,736.0721435546875,558.8247680664062C743.4658203125,533.2998046875,752.69970703125,511.4163818359375,755.6380615234375,484.67279052734375C759.9107666015625,445.78326416015625,752.6517333984375,405.60784912109375,755.5992431640625,367.51971435546875C760.147216796875,308.73773193359375,809.521484375,302.0460205078125,860.95703125,268.87908935546875C906.55810546875,239.473388671875,920.5015869140625,202.2557373046875,953.5863037109375,167.34567260742188C984.833740234375,134.37384033203125,1046.1375732421875,99.363037109375,1102.9920654296875,96.03396606445312C1135.3316650390625,94.13973999023438,1168.721435546875,103.56890869140625,1200.459716796875,107.346923828125C1327.7532958984375,122.4986572265625,1438.6795654296875,69.34478759765625,1540.626708984375,23.111175537109375C1549.7586669921875,18.970321655273438,1585.6201171875,1.73553466796875,1593.03173828125,0.6216583251953125C1595.0185546875,0.3237762451171875,1602.37646484375,-0.406219482421875,1603.336669921875,1.305511474609375C1565.49462890625,14.460250854492188,1531.74267578125,32.7984619140625,1496.0338134765625,48.541748046875C1417.087890625,83.34701538085938,1315.0723876953125,119.59967041015625,1220.025390625,113.02752685546875C1146.9024658203125,107.9720458984375,1116.3851318359375,85.13424682617188,1041.53564453125,114.6826171875C934.8790283203125,156.7857666015625,938.77490234375,226.37738037109375,858.4676513671875,275.184814453125C807.890625,305.92462158203125,764.839111328125,313.91278076171875,760.590087890625,369.31964111328125C757.8074951171875,405.60369873046875,764.447021484375,443.912109375,760.6290283203125,481.06683349609375C757.4962158203125,511.54449462890625,746.3802490234375,538.4392700195312,739.8123779296875,567.8302001953125C736.3055419921875,583.5252685546875,733.893798828125,604.2276611328125,762.645751953125,606.6610107421875C829.65283203125,612.3331298828125,859.0240478515625,561.0567016601562,924.409423828125,565.4304809570312C938.68212890625,566.3849487304688,953.161376953125,571.6207275390625,966.97314453125,572.5081787109375C1010.35400390625,575.2959594726562,1060.5479736328125,543.7821044921875,1098.8509521484375,530.0021362304688C1164.2451171875,506.47845458984375,1225.36962890625,510.28790283203125,1294.201904296875,499.10504150390625C1359.218994140625,488.54095458984375,1423.006591796875,464.44659423828125,1490.582275390625,466.17303466796875C1538.6785888671875,467.40228271484375,1577.074462890625,480.5989990234375,1626.8076171875,472.80389404296875C1665.87939453125,466.68072509765625,1706.624267578125,449.823486328125,1745.72900390625,440.727783203125C1789.1904296875,430.6168212890625,1877.068115234375,424.2545166015625,1905.66748046875,400.45379638671875C1909.102294921875,397.59466552734375,1911.27783203125,393.97613525390625,1915,391.43365478515625L1915,398.64141845703125Z" fill="url(#fill-0-render-4)"/></g></g><g id="shape-d5580eb7-7b62-8069-8007-3bf508458fbe"><defs><linearGradient id="fill-color-gradient-render-5-0" x1="0.5" y1="0" x2="0.5" y2="1" gradientTransform=""><stop offset="0" stop-color="#010b11" stop-opacity="1"/><stop offset="1" stop-color="#03f8c5" stop-opacity="1"/></linearGradient><pattern patternUnits="userSpaceOnUse" x="655.7584595770736" y="0.35944510160948084" width="531.2243510155779" height="922.6343068322126" patternTransform="matrix(1.000000, 0.000000, 0.000000, 1.000000, 0.000000, 0.000000)" id="fill-0-render-5"><g><rect width="531.2243510155779" height="922.6343068322126" style="fill: url(&quot;#fill-color-gradient-render-5-0&quot;);"/></g></pattern></defs><g class="fills" id="fills-d5580eb7-7b62-8069-8007-3bf508458fbe"><path d="M1178.254638671875,922.9937744140625C1175.6005859375,918.945068359375,1169.2301025390625,914.77490234375,1164.5594482421875,911.7186279296875C1088.396240234375,861.8790283203125,1009.4412841796875,869.36572265625,921.7373046875,845.7559814453125C822.384765625,819.01025390625,873.4166259765625,748.0257568359375,887.1834716796875,695.060546875C893.1680908203125,672.0360107421875,892.1895751953125,650.5178833007812,851.041015625,652.7203979492188C803.33056640625,655.275390625,758.6153564453125,679.4390258789062,707.0599365234375,664.853515625C657.2099609375,650.7527465820312,646.088134765625,614.1078491210938,663.385986328125,580.1626586914062C678.4306640625,550.6373291015625,698.4573974609375,531.0699462890625,707.894775390625,497.9093017578125C725.1656494140625,437.2393798828125,700.3544921875,406.80364990234375,678.0386962890625,352.47503662109375C643.3531494140625,268.0400390625,773.2291259765625,274.7967224121094,835.45751953125,236.02685546875C882.91064453125,206.46377563476562,894.161376953125,163.722900390625,926.677490234375,127.16818237304688C945.1842041015625,106.36306762695312,968.84326171875,92.19305419921875,989.986328125,73.81710815429688C1016.6016845703125,50.68145751953125,1023.8516845703125,29.916213989257812,1011.2156982421875,0.418182373046875L1017.933349609375,0.3594207763671875C1022.4273681640625,12.8323974609375,1028.459716796875,27.315017700195312,1024.345458984375,40.0880126953125C1014.572998046875,70.43136596679688,962.305419921875,97.76455688476562,936.6265869140625,123.54757690429688C894.7657470703125,165.57937622070312,887.405029296875,215.71469116210938,823.3660888671875,247.10903930664062C787.893798828125,264.49700927734375,741.99072265625,269.6720275878906,707.3861083984375,287.62005615234375C650.7259521484375,317.0089111328125,688.8463134765625,356.7354736328125,703.630859375,393.44122314453125C724.7586669921875,445.89654541015625,723.017333984375,492.01470947265625,693.541259765625,542.494140625C675.947265625,572.6277465820312,646.875,597.0449829101562,667.7874755859375,631.9718627929688C689.262451171875,667.8365478515625,743.522705078125,667.65185546875,788.854248046875,660.0308837890625C828.1895751953125,653.4168090820312,901.5521240234375,627.516357421875,896.50732421875,681.0751342773438C892.4588623046875,724.0468139648438,840.6939697265625,786.3300170898438,886.5792236328125,825.2193603515625C916.010498046875,850.1654052734375,1010.7520751953125,856.6788330078125,1055.111083984375,865.587890625C1106.1280517578125,875.8330078125,1152.611572265625,893.3739013671875,1186.9827880859375,922.9915771484375L1178.2576904296875,922.9915771484375Z" fill="url(#fill-0-render-5)"/></g></g><g id="shape-d5580eb7-7b62-8069-8007-3bf508458fbf"><defs><linearGradient id="fill-color-gradient-render-6-0" x1="0.5" y1="0" x2="0.5" y2="1" gradientTransform=""><stop offset="0" stop-color="#010b11" stop-opacity="1"/><stop offset="1" stop-color="#03f8c5" stop-opacity="1"/></linearGradient><pattern patternUnits="userSpaceOnUse" x="0.13091157968437983" y="77.72946671286536" width="433.3268947566785" height="845.2663337672443" patternTransform="matrix(1.000000, 0.000000, 0.000000, 1.000000, 0.000000, 0.000000)" id="fill-0-render-6"><g><rect width="433.3268947566785" height="845.2663337672443" style="fill: url(&quot;#fill-color-gradient-render-6-0&quot;);"/></g></pattern></defs><g class="fills" id="fills-d5580eb7-7b62-8069-8007-3bf508458fbf"><path d="M87.47064208984375,922.9937744140625C111.88690185546875,911.0953369140625,140.09429931640625,901.951416015625,167.29327392578125,893.7412109375C212.349609375,880.1395263671875,259.2999267578125,870.5845947265625,304.68853759765625,857.8975830078125C415.501220703125,826.920654296875,457.7896728515625,778.1467895507812,405.5760498046875,695.3438110351562C381.8719482421875,657.750732421875,357.44073486328125,624.143310546875,343.877197265625,583.168701171875C331.3787841796875,545.40771484375,331.351806640625,520.0989379882812,292.55517578125,489.62127685546875C258.75543212890625,463.070556640625,194.61181640625,444.85400390625,199.6837158203125,401.8046875C202.66680908203125,376.4769287109375,242.53173828125,349.35772705078125,263.18975830078125,329.6749267578125C330.32855224609375,265.7010498046875,332.50079345703125,196.2940673828125,286.7532958984375,124.42230224609375C261.31964111328125,84.46719360351562,236.94842529296875,75.42605590820312,176.57794189453125,88.68991088867188C113.0867919921875,102.64175415039062,61.51031494140625,132.15655517578125,0.218414306640625,149.07461547851562C0.224395751953125,147.64816284179688,-0.368011474609375,146.11685180664062,1.45123291015625,145.01974487304688C3.530731201171875,143.76528930664062,17.0106201171875,140.6795654296875,20.996185302734375,139.32443237304688C78.70343017578125,119.694091796875,167.59539794921875,72.81857299804688,232.3553466796875,78.14886474609375C269.9193115234375,81.24087524414062,287.540283203125,113.818359375,299.07818603515625,136.23870849609375C333.688720703125,203.49343872070312,332.53076171875,266.01568603515625,274.23114013671875,325.94525146484375C255.82000732421875,344.86871337890625,210.36273193359375,377.31597900390625,206.2215576171875,399.32318115234375C198.223388671875,441.82275390625,264.4285888671875,460.89520263671875,297.5430908203125,486.92144775390625C338.7904052734375,519.339599609375,335.88201904296875,542.548583984375,348.6226806640625,582.4450073242188C361.97686767578125,624.2608032226562,387.802490234375,658.0506591796875,411.80877685546875,696.2479248046875C461.7364501953125,775.6861572265625,423.349609375,826.5450439453125,316.8306884765625,858.5667724609375C249.45562744140625,878.8201904296875,179.09442138671875,891.0770263671875,113.622314453125,916.22021484375C108.78399658203125,918.078857421875,102.6619873046875,920.3338623046875,98.68829345703125,922.995849609375L87.46759033203125,922.995849609375Z" fill="url(#fill-0-render-6)"/></g></g><g id="shape-d5580eb7-7b62-8069-8007-3bf508458fc0"><defs><linearGradient id="fill-color-gradient-render-7-0" x1="0.5" y1="0" x2="0.5" y2="1" gradientTransform=""><stop offset="0" stop-color="#010b11" stop-opacity="1"/><stop offset="1" stop-color="#03f8c5" stop-opacity="1"/></linearGradient><pattern patternUnits="userSpaceOnUse" x="582.7161327287417" y="0.28520723863272224" width="504.52814160139746" height="922.7085446951894" patternTransform="matrix(1.000000, 0.000000, 0.000000, 1.000000, 0.000000, 0.000000)" id="fill-0-render-7"><g><rect width="504.52814160139746" height="922.7085446951894" style="fill: url(&quot;#fill-color-gradient-render-7-0&quot;);"/></g></pattern></defs><g class="fills" id="fills-d5580eb7-7b62-8069-8007-3bf508458fc0"><path d="M1078.5250244140625,922.9937744140625C1033.2982177734375,885.0860595703125,959.72021484375,889.7303466796875,897.5067138671875,880.3848876953125C838.8837890625,871.578857421875,804.302978515625,857.396240234375,782.73828125,815.573974609375C776.35595703125,803.1975708007812,772.80126953125,790.0681762695312,766.5535888671875,777.7188720703125C743.6453857421875,732.4481201171875,677.7484130859375,707.1853637695312,637.2581787109375,670.2509765625C551.693603515625,592.197265625,666.0489501953125,548.2501831054688,673.36181640625,472.05712890625C678.8465576171875,414.92181396484375,637.45263671875,390.15826416015625,600.552978515625,347.2076416015625C555.6192626953125,294.9053955078125,601.8785400390625,261.56646728515625,669.3253173828125,243.00173950195312C753.8157958984375,219.744384765625,807.6572265625,226.74862670898438,851.85791015625,158.692626953125C869.421875,131.64892578125,903.598876953125,70.13351440429688,902.6591796875,41.552215576171875C901.989013671875,21.168716430664062,883.494140625,8.343338012695312,859.1229248046875,0.8607940673828125C873.4046630859375,-2.41583251953125,892.9495849609375,9.00408935546875,900.0350341796875,17.241806030273438C920.45068359375,40.98162841796875,898.8560791015625,83.37847900390625,886.2559814453125,107.86920166015625C869.963623046875,139.530029296875,847.4564208984375,183.15399169921875,811.765380859375,205.39398193359375C756.43994140625,239.86984252929688,674.1458740234375,233.34384155273438,617.9375,268.02532958984375C545.62548828125,312.6416015625,621.064453125,354.42376708984375,652.3956298828125,395.32916259765625C678.92138671875,429.96014404296875,685.0313720703125,465.64447021484375,668.4337158203125,503.63189697265625C640.244384765625,568.1533203125,566.9508056640625,603.5123291015625,644.732666015625,671.1529541015625C674.3402099609375,696.9002685546875,714.1663818359375,716.5033569335938,744.4622802734375,741.4263305664062C795.43115234375,783.353271484375,772.6217041015625,841.3089599609375,856.6632080078125,867.555419921875C931.776123046875,891.01416015625,1030.4974365234375,872.5101318359375,1087.244140625,922.9937744140625L1078.5189208984375,922.9937744140625Z" fill="url(#fill-0-render-7)"/></g></g><g id="shape-d5580eb7-7b62-8069-8007-3bf508458fc1"><defs><linearGradient id="fill-color-gradient-render-8-0" x1="0.5" y1="0" x2="0.5" y2="1" gradientTransform=""><stop offset="0" stop-color="#010b11" stop-opacity="1"/><stop offset="1" stop-color="#03f8c5" stop-opacity="1"/></linearGradient><pattern patternUnits="userSpaceOnUse" x="519.1599351843358" y="0.2718498486876797" width="453.39976787962905" height="922.7219020851344" patternTransform="matrix(1.000000, 0.000000, 0.000000, 1.000000, 0.000000, 0.000000)" id="fill-0-render-8"><g><rect width="453.39976787962905" height="922.7219020851344" style="fill: url(&quot;#fill-color-gradient-render-8-0&quot;);"/></g></pattern></defs><g class="fills" id="fills-d5580eb7-7b62-8069-8007-3bf508458fc1"><path d="M952.61669921875,922.9937744140625C904.2928466796875,908.7020263671875,848.8536376953125,913.6337890625,801.3287353515625,897.6407470703125C717.0537109375,869.2799072265625,716.1561279296875,804.9765625,676.081787109375,753.0098876953125C625.4808349609375,687.391357421875,525.6045532226562,651.5771484375,580.0565185546875,565.8939819335938C595.7176513671875,541.2501220703125,616.2650146484375,522.65185546875,626.6239013671875,495.03973388671875C661.78515625,401.30975341796875,503.97711181640625,372.66754150390625,520.3564453125,291.2029113769531C537.1634521484375,207.61962890625,696.3597412109375,217.604736328125,767.4422607421875,177.8677978515625C811.2239990234375,153.39166259765625,833.8238525390625,102.69207763671875,815.828857421875,64.5892333984375C803.8421630859375,39.21113586425781,768.9263916015625,28.628204345703125,744.3814697265625,10.814422607421875C740.697998046875,8.139862060546875,737.7327880859375,4.1668243408203125,733.2236328125,1.7565460205078125C731.8321533203125,-0.6621246337890625,739.6148681640625,0.40765380859375,741.404296875,1.2530517578125C743.474853515625,2.2305755615234375,750.9912109375,9.417327880859375,754.3873291015625,11.6912841796875C772.3314208984375,23.704864501953125,797.8070068359375,34.21653747558594,811.517333984375,48.785125732421875C847.5430908203125,87.06838989257812,819.1263427734375,154.36080932617188,770.50927734375,180.9849853515625C704.8935546875,216.91671752929688,560.134521484375,212.49264526367188,530.3772583007812,277.7230529785156C495.168212890625,354.90625,628.7393798828125,389.3443603515625,635.95947265625,459.46453857421875C644.2479248046875,539.9431762695312,517.4300537109375,581.6079711914062,592.3095703125,664.8955688476562C619.4246826171875,695.0563354492188,656.4111328125,718.3788452148438,681.0697021484375,751.2058715820312C721.9219970703125,805.59326171875,723.1070556640625,871.6439208984375,814.8355712890625,896.8857421875C849.966796875,906.5538330078125,888.9459228515625,906.002197265625,925.2022705078125,911.7205810546875C941.1895751953125,914.2420654296875,957.846923828125,917.831298828125,972.559814453125,922.9915771484375L952.61376953125,922.9915771484375Z" fill="url(#fill-0-render-8)"/></g></g><g id="shape-d5580eb7-7b62-8069-8007-3bf508458fc2"><defs><linearGradient id="fill-color-gradient-render-9-0" x1="0.5" y1="0" x2="0.5" y2="1" gradientTransform=""><stop offset="0" stop-color="#010b11" stop-opacity="1"/><stop offset="1" stop-color="#03f8c5" stop-opacity="1"/></linearGradient><pattern patternUnits="userSpaceOnUse" x="255.76022167205815" y="0.17627361922217233" width="290.38945498961425" height="922.8195268608874" patternTransform="matrix(1.000000, 0.000000, 0.000000, 1.000000, 0.000000, 0.000000)" id="fill-0-render-9"><g><rect width="290.38945498961425" height="922.8195268608874" style="fill: url(&quot;#fill-color-gradient-render-9-0&quot;);"/></g></pattern></defs><g class="fills" id="fills-d5580eb7-7b62-8069-8007-3bf508458fc2"><path d="M255.76324462890625,922.9937744140625C344.05963134765625,906.5771484375,463.81903076171875,882.0107421875,485.775634765625,807.6804809570312C510.320556640625,724.5816650390625,406.24334716796875,672.3571166992188,394.15191650390625,591.8826293945312C386.4169921875,540.3983764648438,422.3502197265625,511.06622314453125,379.70263671875,459.97430419921875C362.30596923828125,439.133544921875,326.579345703125,419.61859130859375,318.4644775390625,397.01983642578125C307.4052734375,366.23175048828125,335.6217041015625,316.1341552734375,345.13092041015625,284.3874816894531C352.53656005859375,259.66387939453125,357.87457275390625,233.44454956054688,359.283935546875,208.12307739257812C361.1600341796875,174.43173217773438,346.58209228515625,127.19342041015625,363.99359130859375,97.10586547851562C394.3223876953125,44.696685791015625,499.028076171875,56.7606201171875,533.9678955078125,12.731719970703125C535.6763916015625,10.5794677734375,540.6583251953125,0.921600341796875,541.4453125,0.5775909423828125C542.3997802734375,0.1580657958984375,546.693603515625,-0.406219482421875,546.09228515625,1.6620941162109375C545.4189453125,3.980072021484375,541.879150390625,9.545318603515625,540.221435546875,11.848587036132812C512.48095703125,50.394073486328125,454.10931396484375,47.979583740234375,409.1995849609375,68.51828002929688C361.3394775390625,90.40579223632812,360.10675048828125,115.8636474609375,361.67169189453125,154.06924438476562C363.5567626953125,200.03219604492188,364.101318359375,235.13323974609375,351.360595703125,280.7856750488281C342.590576171875,312.21356201171875,310.7357177734375,369.87969970703125,325.8671875,398.87640380859375C336.2530517578125,418.7794189453125,367.2611083984375,437.24566650390625,383.4398193359375,456.37261962890625C428.8463134765625,510.0634765625,393.553466796875,530.8203125,397.88616943359375,583.7791748046875C402.3475341796875,638.3280029296875,439.609130859375,667.5637817382812,469.8182373046875,712.8827514648438C526.4783935546875,797.8758544921875,484.581787109375,866.1204833984375,367.91339111328125,901.7943115234375C338.44036865234375,910.805908203125,307.2437744140625,915.769287109375,276.9539794921875,922.995849609375L255.7601318359375,922.995849609375Z" fill="url(#fill-0-render-9)"/></g></g><g id="shape-d5580eb7-7b62-8069-8007-3bf508458fc3"><defs><linearGradient id="fill-color-gradient-render-10-0" x1="0.5" y1="0" x2="0.5" y2="1" gradientTransform=""><stop offset="0" stop-color="#010b11" stop-opacity="1"/><stop offset="1" stop-color="#03f8c5" stop-opacity="1"/></linearGradient><pattern patternUnits="userSpaceOnUse" x="468.5284519681636" y="0.854505019743101" width="297.32945788655707" height="922.139246914079" patternTransform="matrix(1.000000, 0.000000, 0.000000, 1.000000, 0.000000, 0.000000)" id="fill-0-render-10"><g><rect width="297.32945788655707" height="922.139246914079" style="fill: url(&quot;#fill-color-gradient-render-10-0&quot;);"/></g></pattern></defs><g class="fills" id="fills-d5580eb7-7b62-8069-8007-3bf508458fc3"><path d="M709.5284423828125,922.9937744140625C679.750244140625,902.9481201171875,663.5654296875,878.0399169921875,656.3154296875,849.2822265625C647.467529296875,814.185546875,646.300537109375,784.7168579101562,624.9781494140625,751.203857421875C588.7667236328125,694.2865600585938,503.633056640625,655.703369140625,528.3634033203125,584.3938598632812C537.75,557.3270874023438,564.3953857421875,533.7445068359375,577.41748046875,507.2274169921875C612.4019775390625,435.9827880859375,533.6058349609375,411.57171630859375,492.40338134765625,359.60302734375C442.96343994140625,297.2464599609375,471.6795654296875,220.00665283203125,565.8316650390625,192.53079223632812C620.3582763671875,176.61752319335938,724.2740478515625,171.67532348632812,752.3765869140625,130.04205322265625C788.848388671875,76.01339721679688,698.2838134765625,47.455169677734375,683.3677978515625,0.8545074462890625L689.7261962890625,0.9384002685546875C704.333984375,43.22407531738281,770.41943359375,63.4229736328125,765.6080322265625,110.77456665039062C758.740966796875,178.379638671875,611.1512451171875,177.6160888671875,547.87548828125,202.9794921875C478.9833984375,230.59585571289062,456.440185546875,294.1397399902344,487.412353515625,345.18963623046875C522.7261352539062,403.40118408203125,617.874755859375,428.68280029296875,583.6380615234375,504.51715087890625C568.9405517578125,537.0715942382812,532.0109252929688,567.3372802734375,528.7135009765625,601.7670288085938C522.98046875,661.648193359375,599.335205078125,700.98876953125,630.8099365234375,751.4889526367188C651.42919921875,784.5741577148438,653.4727783203125,812.809326171875,662.74560546875,847.335693359375C670.917236328125,877.76904296875,688.4693603515625,904.9095458984375,724.4833984375,922.9937744140625L709.5255126953125,922.9937744140625Z" fill="url(#fill-0-render-10)"/></g></g><g id="shape-d5580eb7-7b62-8069-8007-3bf508458fc4"><defs><linearGradient id="fill-color-gradient-render-11-0" x1="0.5" y1="0" x2="0.5" y2="1" gradientTransform=""><stop offset="0" stop-color="#010b11" stop-opacity="1"/><stop offset="1" stop-color="#03f8c5" stop-opacity="1"/></linearGradient><pattern patternUnits="userSpaceOnUse" x="921.6602931320067" y="453.5972814980005" width="993.3397068679933" height="469.3964704358216" patternTransform="matrix(1.000000, 0.000000, 0.000000, 1.000000, 0.000000, 0.000000)" id="fill-0-render-11"><g><rect width="993.3397068679933" height="469.3964704358216" style="fill: url(&quot;#fill-color-gradient-render-11-0&quot;);"/></g></pattern></defs><g class="fills" id="fills-d5580eb7-7b62-8069-8007-3bf508458fc4"><path d="M1255.542724609375,922.9937744140625C1222.6287841796875,896.759765625,1183.6224365234375,873.8779296875,1137.4471435546875,861.037841796875C1082.31298828125,845.707763671875,977.8677978515625,837.136474609375,940.7587890625,804.9786376953125C896.8212890625,766.9051513671875,937.4852294921875,681.9751586914062,974.5615234375,646.4923095703125C1007.5831298828125,614.8902587890625,1082.432861328125,584.88037109375,1131.292236328125,566.0597534179688C1186.3004150390625,544.8685913085938,1229.974609375,543.5240478515625,1289.6177978515625,536.3331298828125C1342.2354736328125,529.9896850585938,1409.212646484375,516.9229125976562,1461.4892578125,524.1370239257812C1493.2271728515625,528.5149536132812,1525.29443359375,542.1689453125,1557.83447265625,540.9795532226562C1611.705810546875,539.0098266601562,1670.107421875,506.92529296875,1717.9794921875,490.0450439453125C1777.631591796875,469.01129150390625,1848.361083984375,454.44476318359375,1915,453.5972900390625L1915,457.201171875C1841.101806640625,457.4088134765625,1766.644287109375,475.48681640625,1701.8037109375,499.9776611328125C1644.0244140625,521.8001708984375,1589.476806640625,555.0216064453125,1519.827880859375,541.43896484375C1478.8406982421875,533.4467163085938,1458.906982421875,524.9571533203125,1413.189208984375,526.536865234375C1360.6583251953125,528.3534545898438,1293.307373046875,538.4287109375,1240.1688232421875,544.7427978515625C1164.511474609375,553.733642578125,1105.7210693359375,578.3084106445312,1042.478271484375,608.1859741210938C974.0377197265625,640.5200805664062,937.5570068359375,684.9999389648438,927.8623046875,744.283447265625C913.2425537109375,833.681640625,1037.573974609375,832.8089599609375,1124.048095703125,853.603515625C1180.1307373046875,867.0897216796875,1223.975341796875,891.4859619140625,1263.020263671875,922.9937744140625L1255.539794921875,922.9937744140625Z" fill="url(#fill-0-render-11)"/></g></g><g id="shape-d5580eb7-7b62-8069-8007-3bf508458fc5"><defs><linearGradient id="fill-color-gradient-render-12-0" x1="0.5" y1="0" x2="0.5" y2="1" gradientTransform=""><stop offset="0" stop-color="#010b11" stop-opacity="1"/><stop offset="1" stop-color="#03f8c5" stop-opacity="1"/></linearGradient><pattern patternUnits="userSpaceOnUse" x="1007.6603362188589" y="534.10153787677" width="907.3396637811411" height="388.8922140570521" patternTransform="matrix(1.000000, 0.000000, 0.000000, 1.000000, 0.000000, 0.000000)" id="fill-0-render-12"><g><rect width="907.3396637811411" height="388.8922140570521" style="fill: url(&quot;#fill-color-gradient-render-12-0&quot;);"/></g></pattern></defs><g class="fills" id="fills-d5580eb7-7b62-8069-8007-3bf508458fc5"><path d="M1386.43603515625,922.9937744140625C1374.9400634765625,915.733642578125,1361.552978515625,910.09912109375,1349.6949462890625,903.147216796875C1315.736572265625,883.2420654296875,1291.9368896484375,859.1309814453125,1261.18310546875,838.27978515625C1196.3721923828125,794.3348388671875,1059.3629150390625,814.770751953125,1018.4747314453125,763.225830078125C970.6177978515625,702.8955078125,1093.1806640625,644.9714965820312,1159.8466796875,629.945556640625C1227.47314453125,614.7036743164062,1271.3924560546875,626.8766479492188,1336.3409423828125,635.3031005859375C1422.791259765625,646.5195922851562,1535.611328125,625.96826171875,1613.764404296875,598.5218505859375C1685.992919921875,573.1542358398438,1790.9140625,512.1107788085938,1873.917236328125,542.2990112304688C1889.228271484375,547.868408203125,1902.26513671875,557.205322265625,1915,565.31298828125L1915,571.6187133789062C1902.597412109375,563.2152099609375,1890.446044921875,554.4614868164062,1875.48828125,548.3697509765625C1798.27197265625,516.9103393554688,1704.583251953125,567.9392700195312,1637.842529296875,593.3971557617188C1563.118896484375,621.9008178710938,1478.7958984375,641.64453125,1393.350830078125,642.8380737304688C1328.28271484375,643.7463989257812,1272.272216796875,623.6419067382812,1207.494384765625,626.541015625C1135.0714111328125,629.781982421875,1000.1058349609375,683.0050659179688,1015.26123046875,745.7265625C1029.126953125,803.1095581054688,1163.0633544921875,798.8511962890625,1222.2127685546875,815.089599609375C1269.716796875,828.1309814453125,1299.5311279296875,866.5987548828125,1337.798095703125,891.0223388671875C1356.178955078125,902.7528076171875,1376.065185546875,913.1324462890625,1396.406005859375,922.9937744140625L1386.43310546875,922.9937744140625Z" fill="url(#fill-0-render-12)"/></g></g><g id="shape-d5580eb7-7b62-8069-8007-3bf508458fc6"><defs><linearGradient id="fill-color-gradient-render-13-0" x1="0.5" y1="0" x2="0.5" y2="1" gradientTransform=""><stop offset="0" stop-color="#010b11" stop-opacity="1"/><stop offset="1" stop-color="#03f8c5" stop-opacity="1"/></linearGradient><pattern patternUnits="userSpaceOnUse" x="965.2622622930116" y="494.0282098822747" width="949.7317474878732" height="428.96554205154735" patternTransform="matrix(1.000000, 0.000000, 0.000000, 1.000000, 0.000000, 0.000000)" id="fill-0-render-13"><g><rect width="949.7317474878732" height="428.96554205154735" style="fill: url(&quot;#fill-color-gradient-render-13-0&quot;);"/></g></pattern></defs><g class="fills" id="fills-d5580eb7-7b62-8069-8007-3bf508458fc6"><path d="M1330.3385009765625,922.9937744140625C1317.4571533203125,914.6973876953125,1303.45361328125,907.3175048828125,1290.4285888671875,899.1302490234375C1255.9647216796875,877.4671630859375,1232.89794921875,855.740966796875,1188.5535888671875,843.0184326171875C1110.4456787109375,820.6107177734375,948.5323486328125,823.6544189453125,966.66796875,732.689453125C978.89111328125,671.3858642578125,1039.7523193359375,637.5413818359375,1110.9034423828125,610.79345703125C1189.84033203125,581.1192626953125,1258.2867431640625,574.0247192382812,1347.21435546875,576.9909057617188C1397.3486328125,578.662841796875,1443.75732421875,594.4774169921875,1494.31640625,592.3818359375C1515.1090087890625,591.519775390625,1542.16455078125,587.2507934570312,1562.2001953125,582.88134765625C1679.520751953125,557.2913208007812,1781.943359375,468.12811279296875,1914.994140625,501.34747314453125L1914.994140625,505.8511962890625C1800.14208984375,473.89263916015625,1700.70849609375,543.8848876953125,1602.93896484375,575.3839721679688C1557.2659912109375,590.0995483398438,1505.919921875,598.8238525390625,1455.62744140625,595.0397338867188C1419.2545166015625,592.3021850585938,1384.0870361328125,582.9043579101562,1347.21435546875,581.4947509765625C1250.2347412109375,577.7901611328125,1184.753662109375,585.6503295898438,1100.11962890625,619.2158203125C1041.20947265625,642.5800170898438,996.2398681640625,668.0567626953125,976.92236328125,716.6754760742188C934.1668701171875,824.2838134765625,1114.5269775390625,814.9281005859375,1200.6451416015625,842.386962890625C1236.7608642578125,853.9014892578125,1257.053955078125,872.6927490234375,1285.437744140625,891.0203857421875C1302.7027587890625,902.169677734375,1321.3800048828125,912.2135009765625,1339.0609130859375,922.9915771484375L1330.33544921875,922.9915771484375Z" fill="url(#fill-0-render-13)"/></g></g><g id="shape-d5580eb7-7b62-8069-8007-3bf508458fc7"><defs><linearGradient id="fill-color-gradient-render-14-0" x1="0.5" y1="0" x2="0.5" y2="1" gradientTransform=""><stop offset="0" stop-color="#010b11" stop-opacity="1"/><stop offset="1" stop-color="#03f8c5" stop-opacity="1"/></linearGradient><pattern patternUnits="userSpaceOnUse" x="424.3449485536262" y="0.3636405204060793" width="265.1987434513221" height="922.630111413416" patternTransform="matrix(1.000000, 0.000000, 0.000000, 1.000000, 0.000000, 0.000000)" id="fill-0-render-14"><g><rect width="265.1987434513221" height="922.630111413416" style="fill: url(&quot;#fill-color-gradient-render-14-0&quot;);"/></g></pattern></defs><g class="fills" id="fills-d5580eb7-7b62-8069-8007-3bf508458fc7"><path d="M599.825927734375,922.9937744140625C582.9559326171875,885,599.2333984375,843.872314453125,596.139404296875,804.4815673828125C588.3448486328125,705.2449340820312,440.1268310546875,663.5005493164062,500.38653564453125,555.162109375C520.6735229492188,518.6871948242188,550.3560791015625,491.44635009765625,524.8536376953125,450.5703125C501.97235107421875,413.90020751953125,451.39239501953125,388.0228271484375,433.6727294921875,348.89215087890625C407.7423095703125,291.630859375,436.195068359375,185.87481689453125,515.033203125,154.91046142578125C574.440185546875,131.57757568359375,722.005859375,149.29693603515625,672.3504638671875,65.57937622070312C659.6815185546875,44.220489501953125,642.26708984375,24.665634155273438,637.252197265625,0.850311279296875L642.6978759765625,0.363616943359375C646.3603515625,9.394287109375,649.3197021484375,18.632614135742188,654.0771484375,27.4324951171875C667.904052734375,53.0078125,705.0850830078125,87.00119018554688,682.347412109375,114.56304931640625C653.3411865234375,149.72488403320312,563.7281494140625,140.88095092773438,517.962646484375,158.83102416992188C437.3172607421875,190.46246337890625,409.18170166015625,299.96087646484375,443.78619384765625,356.90118408203125C469.339599609375,398.951904296875,544.64990234375,436.24078369140625,540.0389404296875,485.61468505859375C537.0767822265625,517.3298950195312,504.25543212890625,549.4312133789062,493.2501220703125,580.6346435546875C469.9169921875,646.7901611328125,551.4033203125,695.49072265625,582.9619140625,750.9395141601562C607.66845703125,794.3494262695312,599.6373291015625,820.224853515625,597.2855224609375,864.84521484375C596.256103515625,884.379150390625,596.6241455078125,904.2904052734375,604.8167724609375,922.9937744140625L599.8319091796875,922.9937744140625Z" fill="url(#fill-0-render-14)"/></g></g><g id="shape-d5580eb7-7b62-8069-8007-3bf508458fc8"><defs><linearGradient id="fill-color-gradient-render-15-0" x1="0.5" y1="0" x2="0.5" y2="1" gradientTransform=""><stop offset="0" stop-color="#010b11" stop-opacity="1"/><stop offset="1" stop-color="#03f8c5" stop-opacity="1"/></linearGradient><pattern patternUnits="userSpaceOnUse" x="1068.2184529317065" y="579.6460240261488" width="846.7815470682935" height="343.3477279076733" patternTransform="matrix(1.000000, 0.000000, 0.000000, 1.000000, 0.000000, 0.000000)" id="fill-0-render-15"><g><rect width="846.7815470682935" height="343.3477279076733" style="fill: url(&quot;#fill-color-gradient-render-15-0&quot;);"/></g></pattern></defs><g class="fills" id="fills-d5580eb7-7b62-8069-8007-3bf508458fc8"><path d="M1451.26171875,922.9937744140625C1399.0333251953125,905.48828125,1352.8309326171875,881.0142822265625,1317.37939453125,848.1220703125C1283.7740478515625,816.9417724609375,1276.4251708984375,791.42529296875,1215.6629638671875,781.985595703125C1168.6497802734375,774.6834106445312,1061.9542236328125,779.782958984375,1068.5072021484375,726.1024780273438C1071.1612548828125,704.3618774414062,1107.462646484375,685.3335571289062,1132.928955078125,677.1608276367188C1215.103515625,650.7884521484375,1274.956298828125,681.1339111328125,1357.1934814453125,677.0706787109375C1425.4390869140625,673.697509765625,1532.1468505859375,653.2218017578125,1595.46435546875,633.9459228515625C1649.377685546875,617.533447265625,1730.57958984375,576.4371337890625,1788.3076171875,579.8458862304688C1856.921630859375,583.8966674804688,1885.11083984375,641.564697265625,1915,677.9349365234375L1915,684.2406616210938C1885.511962890625,649.2255859375,1856.194580078125,588.3331909179688,1789.6962890625,584.2490234375C1726.638916015625,580.3765869140625,1627.833740234375,629.9959106445312,1564.10302734375,646.4189453125C1500.459228515625,662.81884765625,1387.357666015625,683.7078247070312,1320.9310302734375,681.582763671875C1254.2261962890625,679.4494018554688,1209.2027587890625,659.1456909179688,1140.2030029296875,678.8158569335938C1065.916015625,699.9944458007812,1042.1788330078125,753.7210083007812,1135.8642578125,770.2866821289062C1181.133056640625,778.2914428710938,1230.1331787109375,771.1634521484375,1268.0291748046875,794.594970703125C1291.8260498046875,809.3103637695312,1305.31494140625,830.0631103515625,1324.15966796875,847.7257080078125C1360.7601318359375,882.0296630859375,1407.973876953125,905.5009765625,1462.482421875,922.9937744140625L1451.26171875,922.9937744140625Z" fill="url(#fill-0-render-15)"/></g></g><g id="shape-d5580eb7-7b62-8069-8007-3bf508458fc9"><defs><linearGradient id="fill-color-gradient-render-16-0" x1="0.5" y1="0" x2="0.5" y2="1" gradientTransform=""><stop offset="0" stop-color="#010b11" stop-opacity="1"/><stop offset="1" stop-color="#03f8c5" stop-opacity="1"/></linearGradient><pattern patternUnits="userSpaceOnUse" x="379.56987906149584" y="0.19704994284398936" width="225.5050453973122" height="922.7967019909781" patternTransform="matrix(1.000000, 0.000000, 0.000000, 1.000000, 0.000000, 0.000000)" id="fill-0-render-16"><g><rect width="225.5050453973122" height="922.7967019909781" style="fill: url(&quot;#fill-color-gradient-render-16-0&quot;);"/></g></pattern></defs><g class="fills" id="fills-d5580eb7-7b62-8069-8007-3bf508458fc9"><path d="M486.38604736328125,922.9937744140625C533.671630859375,877.3685302734375,561.2415771484375,817.29638671875,538.114990234375,760.825927734375C512.9447021484375,699.3587036132812,447.16741943359375,668.0233154296875,442.703125,598.2387084960938C439.73797607421875,551.9043579101562,484.025146484375,513.9484252929688,465.52154541015625,467.32672119140625C451.4163818359375,431.79150390625,407.05718994140625,405.98553466796875,389.46917724609375,370.9306640625C369.6488037109375,331.426513671875,384.2508544921875,289.83941650390625,393.09857177734375,249.68087768554688C399.10992431640625,222.4022216796875,404.983642578125,192.83914184570312,413.22113037109375,166.0198974609375C425.30059814453125,126.70880126953125,442.5684814453125,106.23724365234375,497.6097412109375,93.66775512695312C541.8731689453125,83.56094360351562,592.907958984375,87.44381713867188,598.41943359375,43.99601745605469C600.2357177734375,29.670730590820312,595.995849609375,15.8992919921875,594.822998046875,1.762786865234375C594.589599609375,-1.0628509521484375,601.4237060546875,0.36572265625,601.0826416015625,2.6627044677734375C602.052001953125,20.795303344726562,609.2064208984375,40.243255615234375,601.64208984375,58.03387451171875C587.507080078125,91.2679443359375,543.070068359375,88.38778686523438,505.0902099609375,96.36752319335938C429.27716064453125,112.29754638671875,423.942138671875,146.68533325195312,410.74053955078125,196.656982421875C400.28582763671875,236.2344970703125,377.80560302734375,309.8033447265625,385.7587890625,347.48248291015625C396.7640380859375,399.6273193359375,467.194091796875,431.5482177734375,475.0157470703125,480.28228759765625C481.918701171875,523.2811279296875,443.5169677734375,558.784912109375,447.75689697265625,602.6920776367188C453.31341552734375,660.2470092773438,499.51275634765625,686.1934814453125,528.9948120117188,734.0821533203125C554.2039794921875,775.03173828125,557.707763671875,809.3544921875,540.6134033203125,852.714111328125C530.538818359375,878.2706298828125,513.0794067382812,901.1480712890625,492.6217041015625,922.9915771484375L486.3890380859375,922.9915771484375Z" fill="url(#fill-0-render-16)"/></g></g><g id="shape-d5580eb7-7b62-8069-8007-3bf508458fca"><defs><linearGradient id="fill-color-gradient-render-17-0" x1="0.5" y1="0" x2="0.5" y2="1" gradientTransform=""><stop offset="0" stop-color="#010b11" stop-opacity="1"/><stop offset="1" stop-color="#03f8c5" stop-opacity="1"/></linearGradient><pattern patternUnits="userSpaceOnUse" x="1431.5383645475633" y="726.2983126646283" width="483.46163545243667" height="184.0819252105265" patternTransform="matrix(1.000000, 0.000000, 0.000000, 1.000000, 0.000000, 0.000000)" id="fill-0-render-17"><g><rect width="483.46163545243667" height="184.0819252105265" style="fill: url(&quot;#fill-color-gradient-render-17-0&quot;);"/></g></pattern></defs><g class="fills" id="fills-d5580eb7-7b62-8069-8007-3bf508458fca"><path d="M1915,910.3802490234375C1850.97607421875,910.3551025390625,1787.57177734375,906.1009521484375,1736.14501953125,876.1181640625C1714.0029296875,863.208984375,1698.404541015625,846.0833740234375,1678.162353515625,833.33544921875C1636.645751953125,807.1917114257812,1618.3486328125,831.915283203125,1581.757080078125,842.9703369140625C1538.3194580078125,856.093505859375,1450.9327392578125,846.0267333984375,1435.0352783203125,809.0355834960938C1414.4610595703125,761.1574096679688,1489.310546875,744.67138671875,1538.505126953125,736.9330444335938C1572.52001953125,731.581787109375,1619.551513671875,724.9404296875,1653.892578125,726.5409545898438C1731.46533203125,730.1553344726562,1738.76318359375,782.7094116210938,1772.3681640625,821.1077880859375C1805.536865234375,859.00927734375,1852.42431640625,875.772216796875,1915,874.3394775390625L1915,877.943359375C1853.163330078125,879.5794677734375,1800.29150390625,863.0347900390625,1767.383544921875,824.7117919921875C1739.83154296875,792.6251831054688,1728.170654296875,742.0074462890625,1669.221923828125,732.5823364257812C1633.08203125,726.8052368164062,1571.52099609375,736.2302856445312,1534.546142578125,742.1773071289062C1499.3583984375,747.8369750976562,1441.8155517578125,759.196044921875,1438.7425537109375,790.9638061523438C1434.6761474609375,832.997802734375,1506.1922607421875,847.8768310546875,1552.7088623046875,844.49951171875C1603.13330078125,840.8369140625,1628.952880859375,795.9143676757812,1680.655029296875,828.8297119140625C1702.25537109375,842.5821533203125,1717.39013671875,859.260986328125,1741.85107421875,872.8961181640625C1793.197265625,901.51953125,1851.11083984375,908.12109375,1915,906.7742919921875L1915,910.3780517578125Z" fill="url(#fill-0-render-17)"/></g></g><g id="shape-d5580eb7-7b62-8069-8007-3bf508458fcb"><defs><linearGradient id="fill-color-gradient-render-18-0" x1="0.5" y1="0" x2="0.5" y2="1" gradientTransform=""><stop offset="0" stop-color="#010b11" stop-opacity="1"/><stop offset="1" stop-color="#03f8c5" stop-opacity="1"/></linearGradient><pattern patternUnits="userSpaceOnUse" x="1375.285193898106" y="679.6075126476885" width="539.714806101894" height="243.3924873523115" patternTransform="matrix(1.000000, 0.000000, 0.000000, 1.000000, 0.000000, 0.000000)" id="fill-0-render-18"><g><rect width="539.714806101894" height="243.3924873523115" style="fill: url(&quot;#fill-color-gradient-render-18-0&quot;);"/></g></pattern></defs><g class="fills" id="fills-d5580eb7-7b62-8069-8007-3bf508458fcb"><path d="M1706.815673828125,922.9937744140625C1683.814453125,912.62890625,1657.980224609375,905.60791015625,1632.016845703125,900.0216064453125C1549.291748046875,882.2247314453125,1408.2310791015625,885.484375,1379.877197265625,811.0619506835938C1363.7672119140625,768.772216796875,1391.2205810546875,739.9306030273438,1443.8232421875,723.4636840820312C1509.648193359375,710.5228271484375,1578.704833984375,694.4187622070312,1645.49365234375,684.521728515625C1711.36376953125,674.7589111328125,1756.614501953125,676.0259399414062,1791.799560546875,721.47705078125C1824.1064453125,763.2111206054688,1840.1953125,824.7327880859375,1915,837.405029296875L1915,841.0087890625C1835.318115234375,830.10498046875,1819.83935546875,767.3267211914062,1786.814697265625,724.1810302734375C1752.569091796875,679.4430541992188,1707.52783203125,678.60400390625,1643.2255859375,688.2892456054688C1582.5888671875,697.422607421875,1523.2449951171875,712.1024780273438,1462.7457275390625,721.827392578125C1405.18798828125,736.0142211914062,1367.55517578125,764.6605834960938,1385.8226318359375,811.2738647460938C1413.9493408203125,883.0469970703125,1555.3780517578125,879.40966796875,1635.466796875,896.6318359375C1662.908203125,902.53271484375,1692.333251953125,910.9005126953125,1715.540771484375,923L1706.815673828125,923Z" fill="url(#fill-0-render-18)"/></g></g><g id="shape-d5580eb7-7b62-8069-8007-3bf508458fcc"><defs><linearGradient id="fill-color-gradient-render-19-0" x1="0.5" y1="0" x2="0.5" y2="1" gradientTransform=""><stop offset="0" stop-color="#010b11" stop-opacity="1"/><stop offset="1" stop-color="#03f8c5" stop-opacity="1"/></linearGradient><pattern patternUnits="userSpaceOnUse" x="1319.4571509492234" y="631.2398822600785" width="595.5428490507766" height="291.75386967374357" patternTransform="matrix(1.000000, 0.000000, 0.000000, 1.000000, 0.000000, 0.000000)" id="fill-0-render-19"><g><rect width="595.5428490507766" height="291.75386967374357" style="fill: url(&quot;#fill-color-gradient-render-19-0&quot;);"/></g></pattern></defs><g class="fills" id="fills-d5580eb7-7b62-8069-8007-3bf508458fcc"><path d="M1573.4296875,922.9937744140625C1500.4864501953125,910.4053955078125,1415.8223876953125,896.5584716796875,1366.5289306640625,852.2442626953125C1337.487060546875,826.1361083984375,1299.165771484375,760.6853637695312,1332.1966552734375,731.0803833007812C1367.2200927734375,699.6903686523438,1501.49462890625,685.1741333007812,1556.9339599609375,672.7682495117188C1608.893310546875,661.1405639648438,1668.96142578125,636.9561767578125,1721.330810546875,632.1146240234375C1842.08349609375,620.9505615234375,1848.579345703125,719.4801025390625,1915,766.2276000976562L1915,772.5332641601562C1892.0439453125,757.6227416992188,1876.02978515625,736.697998046875,1861.182373046875,717.2794799804688C1853.058837890625,706.6547241210938,1846.15283203125,694.9871826171875,1837.92431640625,684.536376953125C1766.330078125,593.5858764648438,1660.840576171875,653.005615234375,1560.6708984375,675.4700317382812C1504.2593994140625,688.1213989257812,1374.50927734375,701.246826171875,1338.426513671875,732.8802490234375C1311.4578857421875,756.5234985351562,1331.50537109375,797.9449462890625,1347.570556640625,822.69580078125C1393.4317626953125,893.3489990234375,1501.3958740234375,907.8671875,1597.113037109375,922.9937744140625L1573.4267578125,922.9937744140625Z" fill="url(#fill-0-render-19)"/></g></g><g id="shape-d5580eb7-7b62-8069-8007-3bf508458fcd"><defs><linearGradient id="fill-color-gradient-render-20-0" x1="0.5" y1="0" x2="0.5" y2="1" gradientTransform=""><stop offset="0" stop-color="#010b11" stop-opacity="1"/><stop offset="1" stop-color="#03f8c5" stop-opacity="1"/></linearGradient><pattern patternUnits="userSpaceOnUse" x="1852.1292768425255" y="39.15451842340508" width="62.87072315747446" height="292.81114664730967" patternTransform="matrix(1.000000, 0.000000, 0.000000, 1.000000, 0.000000, 0.000000)" id="fill-0-render-20"><g><rect width="62.87072315747446" height="292.81114664730967" style="fill: url(&quot;#fill-color-gradient-render-20-0&quot;);"/></g></pattern></defs><g class="fills" id="fills-d5580eb7-7b62-8069-8007-3bf508458fcd"><path d="M1915,39.1566162109375L1915,44.562408447265625C1882.890869140625,57.255645751953125,1860.04541015625,71.876708984375,1857.594970703125,99.92730712890625C1854.608642578125,134.1304931640625,1867.7744140625,190.3282470703125,1876.718017578125,224.9404296875C1885.015380859375,257.0543212890625,1900.364990234375,287.7144775390625,1915,318.4522705078125L1915,331.96563720703125C1899.73681640625,298.5323181152344,1881.571044921875,266.11639404296875,1873.007568359375,231.22515869140625C1863.567138671875,192.77407836914062,1849.33056640625,134.34866333007812,1852.610107421875,96.32138061523438C1855.162109375,66.72894287109375,1882.244384765625,52.7686767578125,1915,39.15449523925781Z" fill="url(#fill-0-render-20)"/></g></g><g id="shape-d5580eb7-7b62-8069-8007-3bf508458fce"><defs><linearGradient id="fill-color-gradient-render-21-0" x1="0.5" y1="0" x2="0.5" y2="1" gradientTransform=""><stop offset="0" stop-color="#010b11" stop-opacity="1"/><stop offset="1" stop-color="#03f8c5" stop-opacity="1"/></linearGradient><pattern patternUnits="userSpaceOnUse" x="1903.2170997081648" y="115.73776335548945" width="11.782900291834721" height="132.43900404437125" patternTransform="matrix(1.000000, 0.000000, 0.000000, 1.000000, 0.000000, 0.000000)" id="fill-0-render-21"><g><rect width="11.782900291834721" height="132.43900404437125" style="fill: url(&quot;#fill-color-gradient-render-21-0&quot;);"/></g></pattern></defs><g class="fills" id="fills-d5580eb7-7b62-8069-8007-3bf508458fce"><path d="M1915,115.73776245117188L1915,129.251220703125C1904.27294921875,162.468505859375,1906.178955078125,197.7352294921875,1915,231.0594482421875L1915,248.1767578125C1902.8427734375,212.83663940429688,1899.419677734375,171.45718383789062,1907.91162109375,135.39120483398438C1909.4287109375,128.95126342773438,1911.22705078125,121.61764526367188,1915,115.73776245117188Z" fill="url(#fill-0-render-21)"/></g></g><g id="shape-d5580eb7-7b62-8069-8007-3bf508458fcf"><defs><linearGradient id="fill-color-gradient-render-22-0" x1="0.5" y1="0" x2="0.5" y2="1" gradientTransform=""><stop offset="0" stop-color="#010b11" stop-opacity="1"/><stop offset="1" stop-color="#03f8c5" stop-opacity="1"/></linearGradient><pattern patternUnits="userSpaceOnUse" x="806.6312072431665" y="38.32372410107567" width="1061.2428309409052" height="483.1575331766244" patternTransform="matrix(1.000000, 0.000000, 0.000000, 1.000000, 0.000000, 0.000000)" id="fill-0-render-22"><g><rect width="1061.2428309409052" height="483.1575331766244" style="fill: url(&quot;#fill-color-gradient-render-22-0&quot;);"/></g></pattern></defs><g class="fills" id="fills-d5580eb7-7b62-8069-8007-3bf508458fcf"><path d="M883.057373046875,520.8980712890625C853.8746337890625,522.5448608398438,829.1141357421875,522.0602416992188,815.6673583984375,500.76641845703125C799.1474609375,474.603759765625,808.088134765625,408.5174560546875,820.146484375,380.8297119140625C838.0458984375,339.7271728515625,884.900634765625,311.0745849609375,917.98828125,276.7559814453125C958.3736572265625,234.86679077148438,976.820556640625,186.94244384765625,1038.2412109375,156.44595336914062C1108.982421875,121.31979370117188,1167.67138671875,144.8980712890625,1243.753662109375,141.90042114257812C1345.5118408203125,137.893798828125,1447.6441650390625,85.0440673828125,1540.174560546875,57.014434814453125C1595.856201171875,40.1488037109375,1704.11669921875,22.528030395507812,1746.47705078125,63.1964111328125C1780.79150390625,96.13885498046875,1813.94775390625,158.53524780273438,1828.373291015625,198.61416625976562C1840.482666015625,232.255126953125,1856.65234375,273.8255310058594,1864.739990234375,307.47283935546875C1877.59765625,360.95184326171875,1851.006103515625,382.11993408203125,1782.85595703125,396.38214111328125C1741.949951171875,404.9429931640625,1691.196533203125,415.38116455078125,1649.727783203125,420.89605712890625C1584.22265625,429.6077880859375,1517.021240234375,419.72967529296875,1452.246337890625,427.728271484375C1391.1488037109375,435.27374267578125,1338.426513671875,460.00787353515625,1278.2415771484375,470.45025634765625C1221.1326904296875,480.35980224609375,1165.3553466796875,474.454833984375,1108.2105712890625,481.80731201171875C1034.1748046875,491.3330078125,959.0499267578125,516.6083374023438,883.054443359375,520.8961181640625ZM874.3382568359375,516.396484375C959.5675048828125,513.4596557617188,1040.844482421875,484.06658935546875,1122.9381103515625,476.23583984375C1169.26611328125,471.81793212890625,1215.7408447265625,475.69036865234375,1261.8204345703125,469.39727783203125C1327.9268798828125,460.3665771484375,1384.0631103515625,432.9453125,1449.78369140625,424.15167236328125C1520.6357421875,414.6700439453125,1591.708984375,425.84027099609375,1663.419921875,414.57769775390625C1702.653564453125,408.41680908203125,1750.719970703125,399.43853759765625,1789.088623046875,390.9805908203125C1842.244873046875,379.2628173828125,1869.192626953125,358.81005859375,1861.032958984375,316.46563720703125C1855.23388671875,286.3634948730469,1839.465087890625,247.30203247070312,1829.378662109375,216.81390380859375C1813.75927734375,169.59442138671875,1791.491455078125,129.11276245117188,1758.574462890625,86.89208984375C1737.392822265625,59.72467041015625,1720.71142578125,48.699066162109375,1676.11865234375,44.677764892578125C1526.835693359375,31.2188720703125,1392.98583984375,140.444580078125,1240.010498046875,145.51058959960938C1164.9244384765625,147.99639892578125,1109.1529541015625,124.82717895507812,1039.4859619140625,160.05609130859375C981.79052734375,189.2310791015625,961.8507080078125,236.60372924804688,924.2208251953125,276.76226806640625C890.0980224609375,313.17645263671875,841.193603515625,341.094970703125,823.8629150390625,385.322998046875C813.3572998046875,412.12969970703125,807.316162109375,466.3597412109375,818.05810546875,492.736328125C826.37646484375,513.1617431640625,847.2020263671875,517.3341064453125,874.3382568359375,516.4006958007812Z" fill="url(#fill-0-render-22)"/></g></g><g id="shape-d5580eb7-7b62-8069-8007-3bf508458fd0"><defs><linearGradient id="fill-color-gradient-render-23-0" x1="0.5" y1="0" x2="0.5" y2="1" gradientTransform=""><stop offset="0" stop-color="#010b11" stop-opacity="1"/><stop offset="1" stop-color="#03f8c5" stop-opacity="1"/></linearGradient><pattern patternUnits="userSpaceOnUse" x="0.215437508560683" y="132.7319356526093" width="377.96797065122877" height="782.1457831703799" patternTransform="matrix(1.000000, 0.000000, 0.000000, 1.000000, 0.000000, 0.000000)" id="fill-0-render-23"><g><rect width="377.96797065122877" height="782.1457831703799" style="fill: url(&quot;#fill-color-gradient-render-23-0&quot;);"/></g></pattern></defs><g class="fills" id="fills-d5580eb7-7b62-8069-8007-3bf508458fd0"><path d="M0.466796875,908.7586669921875C45.66680908203125,886.1998291015625,93.3114013671875,867.790283203125,145.1002197265625,854.2769775390625C203.10675048828125,839.141845703125,276.17291259765625,830.9671630859375,324.89764404296875,803.12841796875C417.9757080078125,749.9493408203125,351.923095703125,678.3607788085938,318.40765380859375,616.8915405273438C302.9649658203125,588.5661010742188,291.9149169921875,558.7177734375,268.74639892578125,532.9557495117188C234.057861328125,494.38519287109375,170.3602294921875,473.46466064453125,146.70391845703125,430.157470703125C104.4752197265625,352.84423828125,234.84783935546875,317.55023193359375,266.666748046875,255.60894775390625C285.1524658203125,219.62271118164062,272.31597900390625,172.14520263671875,227.501953125,149.22561645507812C149.0797119140625,109.11737060546875,74.31103515625,183.32601928710938,0.215484619140625,193.21676635742188L1.42730712890625,189.14508056640625C77.1475830078125,177.22378540039062,157.0269775390625,100.510498046875,236.4036865234375,148.19772338867188C286.642578125,178.3817138671875,290.68798828125,234.86260986328125,260.15277099609375,274.3247375488281C224.4140625,320.51214599609375,124.1937255859375,356.427001953125,146.42877197265625,418.64306640625C162.90972900390625,464.75494384765625,221.33209228515625,483.13720703125,259.464599609375,517.1390380859375C294.1888427734375,548.1033325195312,307.4652099609375,587.4984130859375,327.458984375,623.8621826171875C353.0333251953125,670.3789672851562,403.02972412109375,728.0386962890625,363.493896484375,777.8656616210938C323.87744140625,827.7933349609375,222.8431396484375,838.2755126953125,153.8253173828125,856.0767822265625C99.26580810546875,870.148193359375,46.5164794921875,889.07373046875,0.8228759765625,914.8775634765625L0.466796875,908.756591796875Z" fill="url(#fill-0-render-23)"/></g></g><g id="shape-d5580eb7-7b62-8069-8007-3bf508458fd1"><defs><linearGradient id="fill-color-gradient-render-24-0" x1="0.5" y1="0" x2="0.5" y2="1" gradientTransform=""><stop offset="0" stop-color="#010b11" stop-opacity="1"/><stop offset="1" stop-color="#03f8c5" stop-opacity="1"/></linearGradient><pattern patternUnits="userSpaceOnUse" x="0.14496354156972302" y="182.93079018257004" width="325.4425346143464" height="679.7013162496432" patternTransform="matrix(1.000000, 0.000000, 0.000000, 1.000000, 0.000000, 0.000000)" id="fill-0-render-24"><g><rect width="325.4425346143464" height="679.7013162496432" style="fill: url(&quot;#fill-color-gradient-render-24-0&quot;);"/></g></pattern></defs><g class="fills" id="fills-d5580eb7-7b62-8069-8007-3bf508458fd1"><path d="M0.200469970703125,243.67929077148438L0.200469970703125,239.1650390625C27.56097412109375,239.77545166015625,52.22259521484375,232.11459350585938,74.1494140625,220.984130859375C105.764892578125,204.93667602539062,138.7418212890625,177.9810791015625,182.26904296875,183.71829223632812C201.7781982421875,186.29010009765625,218.92041015625,203.422119140625,220.8414306640625,217.1075439453125C226.9305419921875,260.4840393066406,165.65350341796875,284.74615478515625,134.32232666015625,314.92803955078125C117.8773193359375,330.7698974609375,106.26751708984375,349.3536376953125,100.3250732421875,368.7406005859375C71.56414794921875,462.55657958984375,205.6141357421875,497.921875,257.22332763671875,567.4149169921875C278.55462646484375,596.13671875,315.2928466796875,660.7987060546875,322.7164306640625,692.1658325195312C346.1422119140625,791.1672973632812,221.35906982421875,800.76220703125,125.16314697265625,823.6544189453125C82.0518798828125,833.9144287109375,39.96661376953125,846.89501953125,0.22149658203125,862.6322021484375C0.233306884765625,861.3670654296875,-0.068817138671875,859.9847412109375,0.45172119140625,858.7535400390625C1.19683837890625,856.9913330078125,22.997894287109375,848.952880859375,27.18701171875,847.444580078125C89.3018798828125,825.07470703125,152.706298828125,816.2138671875,217.06829833984375,799.9818725585938C306.83978271484375,777.34130859375,339.39190673828125,738.0133666992188,309.70635986328125,670.0328369140625C296.15472412109375,638.9992065429688,273.0938720703125,595.3145141601562,251.424560546875,567.102294921875C209.19268798828125,512.1171264648438,118.2362060546875,481.56390380859375,95.8427734375,418.26763916015625C82.7608642578125,381.29119873046875,101.4471435546875,338.32806396484375,133.64599609375,309.03558349609375C164.6182861328125,280.859130859375,243.7615966796875,245.03860473632812,206.9217529296875,202.84524536132812C166.9132080078125,157.02285766601562,91.37249755859375,222.09384155273438,51.761962890625,235.4415283203125C35.97503662109375,240.76138305664062,17.6807861328125,244.3106689453125,0.197509765625,243.6834716796875Z" fill="url(#fill-0-render-24)"/></g></g><g id="shape-d5580eb7-7b62-8069-8007-3bf508458fd2"><defs><linearGradient id="fill-color-gradient-render-25-0" x1="0.5" y1="0" x2="0.5" y2="1" gradientTransform=""><stop offset="0" stop-color="#010b11" stop-opacity="1"/><stop offset="1" stop-color="#03f8c5" stop-opacity="1"/></linearGradient><pattern patternUnits="userSpaceOnUse" x="0.000795203780569409" y="307.6322128441757" width="277.0174409914194" height="501.8313086672342" patternTransform="matrix(1.000000, 0.000000, 0.000000, 1.000000, 0.000000, 0.000000)" id="fill-0-render-25"><g><rect width="277.0174409914194" height="501.8313086672342" style="fill: url(&quot;#fill-color-gradient-render-25-0&quot;);"/></g></pattern></defs><g class="fills" id="fills-d5580eb7-7b62-8069-8007-3bf508458fd2"><path d="M0.35003662109375,804.1668090820312C53.4674072265625,788.4527587890625,111.25250244140625,784.2761840820312,166.2728271484375,773.179443359375C250.27252197265625,756.23828125,290.41876220703125,723.4154052734375,263.860107421875,658.1157836914062C255.9158935546875,638.5818481445312,241.79266357421875,612.1276245117188,229.22552490234375,593.9530029296875C181.5809326171875,525.0494995117188,79.44256591796875,491.19451904296875,50.42431640625,411.44586181640625C39.22760009765625,380.6702880859375,42.39630126953125,343.64569091796875,10.843780517578125,319.32489013671875C6.181884765625,315.73150634765625,-2.78265380859375,313.9798583984375,0.843719482421875,307.63226318359375C48.6141357421875,328.92388916015625,41.9803466796875,372.11376953125,53.1861572265625,406.74908447265625C79.61907958984375,488.45074462890625,184.6329345703125,520.9505615234375,232.5498046875,590.6491088867188C246.337890625,610.7033081054688,261.49627685546875,639.2846069335938,270.09576416015625,660.8175659179688C289.51513671875,709.457275390625,268.4200439453125,749.5277709960938,202.47235107421875,768.702880859375C138.12237548828125,787.4144897460938,63.946044921875,787.3011474609375,0.8228759765625,809.4635009765625L0.353118896484375,804.1646728515625Z" fill="url(#fill-0-render-25)"/></g></g><g id="shape-d5580eb7-7b62-8069-8007-3bf508458fd3"><defs><linearGradient id="fill-color-gradient-render-26-0" x1="0.5" y1="0" x2="0.5" y2="1" gradientTransform=""><stop offset="0" stop-color="#010b11" stop-opacity="1"/><stop offset="1" stop-color="#03f8c5" stop-opacity="1"/></linearGradient><pattern patternUnits="userSpaceOnUse" x="0.21244530607953038" y="396.824791520158" width="225.3421328478437" height="348.6773789524939" patternTransform="matrix(1.000000, 0.000000, 0.000000, 1.000000, 0.000000, 0.000000)" id="fill-0-render-26"><g><rect width="225.3421328478437" height="348.6773789524939" style="fill: url(&quot;#fill-color-gradient-render-26-0&quot;);"/></g></pattern></defs><g class="fills" id="fills-d5580eb7-7b62-8069-8007-3bf508458fd3"><path d="M0.212432861328125,745.502197265625L0.329132080078125,741.088623046875C35.55908203125,732.9683227539062,71.92919921875,736.64990234375,108.08984375,735.6324462890625C153.804443359375,734.344482421875,204.605712890625,727.8876953125,217.46923828125,690.3511352539062C238.47735595703125,629.0477294921875,146.521484375,557.7528686523438,97.937255859375,513.1513061523438C65.90289306640625,483.7435302734375,31.337158203125,457.43817138671875,9.96099853515625,422.67071533203125C5.0777587890625,414.728759765625,-1.666595458984375,405.70867919921875,0.831787109375,396.8248291015625C10.583404541015625,417.70751953125,23.9375,437.80157470703125,41.06182861328125,456.0516357421875C74.26904296875,491.44635009765625,119.4002685546875,526.3479614257812,156.52728271484375,559.9994506835938C193.73504638671875,593.724365234375,242.63043212890625,653.351806640625,219.63848876953125,697.3219604492188C186.47906494140625,760.7420654296875,68.98480224609375,728.479248046875,0.212432861328125,745.498046875Z" fill="url(#fill-0-render-26)"/></g></g><g id="shape-d5580eb7-7b62-8069-8007-3bf508458fd4"><defs><linearGradient id="fill-color-gradient-render-27-0" x1="0.5" y1="0" x2="0.5" y2="1" gradientTransform=""><stop offset="0" stop-color="#010b11" stop-opacity="1"/><stop offset="1" stop-color="#03f8c5" stop-opacity="1"/></linearGradient><pattern patternUnits="userSpaceOnUse" x="0.09804362168620173" y="466.2128953166125" width="158.67399995911728" height="220.9577605734935" patternTransform="matrix(1.000000, 0.000000, 0.000000, 1.000000, 0.000000, 0.000000)" id="fill-0-render-27"><g><rect width="158.67399995911728" height="220.9577605734935" style="fill: url(&quot;#fill-color-gradient-render-27-0&quot;);"/></g></pattern></defs><g class="fills" id="fills-d5580eb7-7b62-8069-8007-3bf508458fd4"><path d="M0.359100341796875,675.1260375976562L0.203521728515625,671.6312866210938C30.30194091796875,673.9744262695312,60.15496826171875,681.2890625,90.597412109375,682.4302978515625C211.93963623046875,686.9739990234375,127.83233642578125,592.140625,96.713623046875,556.3809204101562C75.93878173828125,532.5068359375,53.34466552734375,510.46197509765625,27.025390625,489.62335205078125C21.4989013671875,485.24749755859375,4.36553955078125,475.02325439453125,1.38531494140625,471.21600341796875C0.0029296875,469.44970703125,-0.03289794921875,468.16796875,0.218414306640625,466.21295166015625C46.9205322265625,496.54376220703125,82.9822998046875,533.0711059570312,115.41162109375,571.7005004882812C133.76568603515625,593.56494140625,156.39569091796875,620.7156372070312,158.5830078125,646.8111572265625C164.01983642578125,711.5905151367188,50.81634521484375,680.18359375,0.3560791015625,675.1303100585938Z" fill="url(#fill-0-render-27)"/></g></g><g id="shape-d5580eb7-7b62-8069-8007-3bf508458fd5"><defs><linearGradient id="fill-color-gradient-render-28-0" x1="0.5" y1="0" x2="0.5" y2="1" gradientTransform=""><stop offset="0" stop-color="#010b11" stop-opacity="1"/><stop offset="1" stop-color="#03f8c5" stop-opacity="1"/></linearGradient><pattern patternUnits="userSpaceOnUse" x="1157.0519502639772" y="0.3337926388459209" width="341.57916889190665" height="80.47406908740749" patternTransform="matrix(1.000000, 0.000000, 0.000000, 1.000000, 0.000000, 0.000000)" id="fill-0-render-28"><g><rect width="341.57916889190665" height="80.47406908740749" style="fill: url(&quot;#fill-color-gradient-render-28-0&quot;);"/></g></pattern></defs><g class="fills" id="fills-d5580eb7-7b62-8069-8007-3bf508458fd5"><path d="M1157.054931640625,0.4118804931640625L1164.5474853515625,0.4118804931640625C1165.199462890625,27.7303466796875,1179.125244140625,50.540863037109375,1212.32080078125,64.53887939453125C1291.6107177734375,97.96804809570312,1401.5972900390625,57.32275390625,1464.316650390625,19.314361572265625C1470.735107421875,15.425216674804688,1485.6180419921875,3.2626800537109375,1490.45947265625,1.2698516845703125C1493.3050537109375,0.097198486328125,1495.5491943359375,0.31329345703125,1498.631103515625,0.4265594482421875C1473.430908203125,20.100997924804688,1442.53662109375,37.12602233886719,1410.5052490234375,50.698211669921875C1353.61767578125,74.80300903320312,1270.8927001953125,94.38095092773438,1209.03515625,68.7154541015625C1173.4552001953125,53.951751708984375,1157.168701171875,29.771438598632812,1157.052001953125,0.4139556884765625Z" fill="url(#fill-0-render-28)"/></g></g><g id="shape-d5580eb7-7b62-8069-8007-3bf508458fd6"><defs><linearGradient id="fill-color-gradient-render-29-0" x1="0.5" y1="0" x2="0.5" y2="1" gradientTransform=""><stop offset="0" stop-color="#010b11" stop-opacity="1"/><stop offset="1" stop-color="#03f8c5" stop-opacity="1"/></linearGradient><pattern patternUnits="userSpaceOnUse" x="296.9057949066164" y="0.09796606374652583" width="168.2985664367675" height="22.21870017103916" patternTransform="matrix(1.000000, 0.000000, 0.000000, 1.000000, 0.000000, 0.000000)" id="fill-0-render-29"><g><rect width="168.2985664367675" height="22.21870017103916" style="fill: url(&quot;#fill-color-gradient-render-29-0&quot;);"/></g></pattern></defs><g class="fills" id="fills-d5580eb7-7b62-8069-8007-3bf508458fd6"><path d="M296.90582275390625,0.4202728271484375C307.2227783203125,-1.111053466796875,306.57049560546875,3.09063720703125,311.8338623046875,7.191680908203125C334.0029296875,24.460067749023438,395.56121826171875,13.864501953125,424.3221435546875,8.267776489257812C433.7564697265625,6.432281494140625,446.969970703125,1.79217529296875,454.87237548828125,0.6153564453125C456.3653564453125,0.39300537109375,465.17144775390625,-0.0265045166015625,465.204345703125,0.8650054931640625C437.3082275390625,12.475814819335938,400.35772705078125,18.2088623046875,368.41015625,21.01348876953125C338.14715576171875,23.67132568359375,309.224609375,24.529251098632812,296.90582275390625,0.418182373046875Z" fill="url(#fill-0-render-29)"/></g></g><g id="shape-d5580eb7-7b62-8069-8007-3bf508458fd7"><defs><linearGradient id="fill-color-gradient-render-30-0" x1="0.5" y1="0" x2="0.5" y2="1" gradientTransform=""><stop offset="0" stop-color="#010b11" stop-opacity="1"/><stop offset="1" stop-color="#03f8c5" stop-opacity="1"/></linearGradient><pattern patternUnits="userSpaceOnUse" x="0.215437508560683" y="0.35870068684823764" width="213.2314523145978" height="100.96149632150934" patternTransform="matrix(1.000000, 0.000000, 0.000000, 1.000000, 0.000000, 0.000000)" id="fill-0-render-30"><g><rect width="213.2314523145978" height="100.96149632150934" style="fill: url(&quot;#fill-color-gradient-render-30-0&quot;);"/></g></pattern></defs><g class="fills" id="fills-d5580eb7-7b62-8069-8007-3bf508458fd7"><path d="M0.215484619140625,101.3201904296875L0.95159912109375,97.62612915039062C33.647216796875,90.22537231445312,64.66412353515625,79.23965454101562,94.54119873046875,67.24075317382812C126.922607421875,54.237060546875,169.8934326171875,35.093353271484375,194.0733642578125,14.844131469726562C197.22998046875,12.198898315429688,205.73382568359375,2.2641754150390625,207.68463134765625,1.25726318359375C209.55474853515625,0.29437255859375,211.20050048828125,0.286041259765625,213.3729248046875,0.4202728271484375C214.55780029296875,1.15655517578125,201.143798828125,13.916961669921875,199.6297607421875,15.255279541015625C177.765869140625,34.5877685546875,140.51910400390625,51.818389892578125,110.7469482421875,64.53887939453125C75.872802734375,79.43896484375,38.88360595703125,92.37759399414062,0.215484619140625,101.3201904296875Z" fill="url(#fill-0-render-30)"/></g></g><g id="shape-d5580eb7-7b62-8069-8007-3bf508458fd8"><defs><linearGradient id="fill-color-gradient-render-31-0" x1="0.5" y1="0" x2="0.5" y2="1" gradientTransform=""><stop offset="0" stop-color="#010b11" stop-opacity="1"/><stop offset="1" stop-color="#03f8c5" stop-opacity="1"/></linearGradient><pattern patternUnits="userSpaceOnUse" x="1260.211689123376" y="0.14157333635938585" width="133.71682840897256" height="33.3466691494817" patternTransform="matrix(1.000000, 0.000000, 0.000000, 1.000000, 0.000000, 0.000000)" id="fill-0-render-31"><g><rect width="133.71682840897256" height="33.3466691494817" style="fill: url(&quot;#fill-color-gradient-render-31-0&quot;);"/></g></pattern></defs><g class="fills" id="fills-d5580eb7-7b62-8069-8007-3bf508458fd8"><path d="M1260.5218505859375,0.4118804931640625L1268.0142822265625,0.4118804931640625C1266.6318359375,29.351882934570312,1312.70263671875,32.11460876464844,1342.1038818359375,25.588607788085938C1356.3704833984375,22.421051025390625,1367.881591796875,17.019424438476562,1377.672119140625,8.94952392578125C1382.97119140625,4.5821533203125,1384.224853515625,-2.0885772705078125,1393.928466796875,0.8775634765625C1379.5780029296875,19.3353271484375,1355.81103515625,29.718978881835938,1327.05322265625,32.73133850097656C1295.2491455078125,36.06036376953125,1256.3416748046875,28.957534790039062,1260.5218505859375,0.4139556884765625Z" fill="url(#fill-0-render-31)"/></g></g><g id="shape-d5580eb7-7b62-8069-8007-3bf508458fd9"><defs><linearGradient id="fill-color-gradient-render-32-0" x1="0.5" y1="0" x2="0.5" y2="1" gradientTransform=""><stop offset="0" stop-color="#010b11" stop-opacity="1"/><stop offset="1" stop-color="#03f8c5" stop-opacity="1"/></linearGradient><pattern patternUnits="userSpaceOnUse" x="0.2184296932072698" y="503.147314255805" width="55.368233027226836" height="108.99705355551055" patternTransform="matrix(1.000000, 0.000000, 0.000000, 1.000000, 0.000000, 0.000000)" id="fill-0-render-32"><g><rect width="55.368233027226836" height="108.99705355551055" style="fill: url(&quot;#fill-color-gradient-render-32-0&quot;);"/></g></pattern></defs><g class="fills" id="fills-d5580eb7-7b62-8069-8007-3bf508458fd9"><path d="M0.3829345703125,607.78955078125C1.14898681640625,606.8832397460938,20.481597900390625,606.3126831054688,25.14630126953125,605.4107055664062C37.78839111328125,602.9711303710938,47.41729736328125,597.2800903320312,48.8115234375,587.376708984375C52.75213623046875,559.4078979492188,22.722686767578125,529.8154907226562,0.87969970703125,508.5174560546875L0.218414306640625,503.14727783203125C6.6575927734375,507.23779296875,11.777191162109375,512.6982421875,16.68743896484375,517.8123779296875C34.374267578125,536.2261352539062,69.9364013671875,579.038330078125,49.3681640625,600.390869140625C38.000732421875,612.1906127929688,18.117645263671875,610.0194091796875,0.804840087890625,612.1443481445312L0.38006591796875,607.7853393554688Z" fill="url(#fill-0-render-32)"/></g></g><g id="shape-d5580eb7-7b62-8069-8007-3bf508458fda"><defs><linearGradient id="fill-color-gradient-render-33-0" x1="0.5" y1="0" x2="0.5" y2="1" gradientTransform=""><stop offset="0" stop-color="#010b11" stop-opacity="1"/><stop offset="1" stop-color="#03f8c5" stop-opacity="1"/></linearGradient><pattern patternUnits="userSpaceOnUse" x="1755.4356113433842" y="0" width="125.92024993896439" height="12.014933005419977" patternTransform="matrix(1.000000, 0.000000, 0.000000, 1.000000, 0.000000, 0.000000)" id="fill-0-render-33"><g><rect width="125.92024993896439" height="12.014933005419977" style="fill: url(&quot;#fill-color-gradient-render-33-0&quot;);"/></g></pattern></defs><g class="fills" id="fills-d5580eb7-7b62-8069-8007-3bf508458fda"><path d="M1755.435791015625,0.4244842529296875C1765.980224609375,-1.4487762451171875,1770.564208984375,3.3780670166015625,1779.3759765625,5.1862640380859375C1791.470458984375,7.6678924560546875,1807.0927734375,6.7092132568359375,1819.6240234375,5.8134613037109375C1840.336181640625,4.3324737548828125,1860.3984375,-1.42572021484375,1881.35595703125,0.8670501708984375C1859.001220703125,5.7421875,1835.49755859375,9.624984741210938,1812.1494140625,11.223464965820312C1792.544677734375,12.566009521484375,1767.75439453125,13.820419311523438,1755.435791015625,0.4265594482421875Z" fill="url(#fill-0-render-33)"/></g></g><g id="shape-d5580eb7-7b62-8069-8007-3bf508458fdb"><defs><linearGradient id="fill-color-gradient-render-34-0" x1="0.5" y1="0" x2="0.5" y2="1" gradientTransform=""><stop offset="0" stop-color="#010b11" stop-opacity="1"/><stop offset="1" stop-color="#03f8c5" stop-opacity="1"/></linearGradient><pattern patternUnits="userSpaceOnUse" x="0.20047656749386533" y="0.35615571689305625" width="127.16198254371989" height="40.60868866798373" patternTransform="matrix(1.000000, 0.000000, 0.000000, 1.000000, 0.000000, 0.000000)" id="fill-0-render-34"><g><rect width="127.16198254371989" height="40.60868866798373" style="fill: url(&quot;#fill-color-gradient-render-34-0&quot;);"/></g></pattern></defs><g class="fills" id="fills-d5580eb7-7b62-8069-8007-3bf508458fdb"><path d="M0.200469970703125,40.96485900878906L0.200469970703125,35.550628662109375C19.634765625,37.31477355957031,39.7811279296875,32.22369384765625,57.88397216796875,27.235321044921875C72.9345703125,23.088165283203125,87.3509521484375,17.753646850585938,100.84564208984375,11.435348510742188C105.71392822265625,9.155120849609375,116.25537109375,2.081634521484375,119.90594482421875,0.8859405517578125C122.3145751953125,0.097198486328125,124.8519287109375,0.4202728271484375,127.3624267578125,0.4286651611328125C111.605712890625,10.94866943359375,92.93731689453125,20.233154296875,73.35052490234375,26.702499389648438C51.27716064453125,33.99205017089844,24.5059814453125,40.76556396484375,0.200469970703125,40.96485900878906Z" fill="url(#fill-0-render-34)"/></g></g><g id="shape-d5580eb7-7b62-8069-8007-3bf508458fdc"><defs><linearGradient id="fill-color-gradient-render-35-0" x1="0.5" y1="0" x2="0.5" y2="1" gradientTransform=""><stop offset="0" stop-color="#010b11" stop-opacity="1"/><stop offset="1" stop-color="#03f8c5" stop-opacity="1"/></linearGradient><pattern patternUnits="userSpaceOnUse" x="881.2725069252842" y="77.59055890212437" width="923.191999469203" height="384.94856875124344" patternTransform="matrix(1.000000, 0.000000, 0.000000, 1.000000, 0.000000, 0.000000)" id="fill-0-render-35"><g><rect width="923.191999469203" height="384.94856875124344" style="fill: url(&quot;#fill-color-gradient-render-35-0&quot;);"/></g></pattern></defs><g class="fills" id="fills-d5580eb7-7b62-8069-8007-3bf508458fdc"><path d="M962.8470458984375,462.34051513671875C912.5303955078125,464.5263671875,878.0574951171875,448.774658203125,881.510498046875,409.86199951171875C885.166748046875,368.67144775390625,920.31005859375,335.974365234375,947.8472900390625,301.93902587890625C971.7607421875,272.38226318359375,996.91015625,234.77239990234375,1028.0198974609375,209.42367553710938C1102.2410888671875,148.95083618164062,1186.8812255859375,184.656005859375,1280.4857177734375,168.4490966796875C1401.3790283203125,147.51809692382812,1561.75732421875,32.56349182128906,1687.2646484375,96.98422241210938C1743.15869140625,125.67254638671875,1795.1181640625,215.63497924804688,1802.652099609375,264.0564270019531C1812.879638671875,329.76727294921875,1780.058349609375,351.71142578125,1698.08740234375,370.25518798828125C1615.29052734375,388.985595703125,1543.184814453125,383.78753662109375,1459.3765869140625,387.8360595703125C1381.220703125,391.6119384765625,1334.3631591796875,425.036865234375,1263.2926025390625,438.9259033203125C1202.27587890625,450.8492431640625,1141.4298095703125,445.53369140625,1079.156494140625,449.99761962890625C1040.730712890625,452.75189208984375,1000.826904296875,460.69171142578125,962.8470458984375,462.34051513671875ZM971.5692138671875,456.93255615234375C1010.1505126953125,454.99017333984375,1049.9854736328125,447.8663330078125,1089.12939453125,445.49383544921875C1149.9305419921875,441.80810546875,1209.5379638671875,446.85101318359375,1268.9627685546875,434.01513671875C1313.1453857421875,424.47265625,1348.3216552734375,405.016357421875,1390.777587890625,394.11669921875C1459.059326171875,376.58819580078125,1538.6756591796875,386.05938720703125,1611.2900390625,379.6025390625C1666.9833984375,374.64990234375,1769.941650390625,360.3477783203125,1792.53271484375,317.7872314453125C1819.9892578125,266.0618591308594,1765.917236328125,175.59808349609375,1724.544189453125,132.2069091796875C1607.031982421875,8.964248657226562,1421.6151123046875,144.37576293945312,1288.2235107421875,170.43975830078125C1229.3402099609375,181.94573974609375,1182.6712646484375,172.94024658203125,1125.2928466796875,176.11618041992188C1033.21728515625,181.21151733398438,992.8765869140625,253.7042236328125,952.83203125,303.74090576171875C933.4906005859375,327.90655517578125,907.3031005859375,352.98675537109375,895.899658203125,379.7200927734375C873.8834228515625,431.33642578125,891.1990966796875,460.97705078125,971.5692138671875,456.93255615234375Z" fill="url(#fill-0-render-35)"/></g></g><g id="shape-d5580eb7-7b62-8069-8007-3bf508458fdd"><defs><linearGradient id="fill-color-gradient-render-36-0" x1="0.5" y1="0" x2="0.5" y2="1" gradientTransform=""><stop offset="0" stop-color="#010b11" stop-opacity="1"/><stop offset="1" stop-color="#03f8c5" stop-opacity="1"/></linearGradient><pattern patternUnits="userSpaceOnUse" x="971.1024854694256" y="107.70147502145653" width="773.71570284474" height="307.385833529769" patternTransform="matrix(1.000000, 0.000000, 0.000000, 1.000000, 0.000000, 0.000000)" id="fill-0-render-36"><g><rect width="773.71570284474" height="307.385833529769" style="fill: url(&quot;#fill-color-gradient-render-36-0&quot;);"/></g></pattern></defs><g class="fills" id="fills-d5580eb7-7b62-8069-8007-3bf508458fdd"><path d="M1181.00439453125,413.69036865234375C1138.3956298828125,415.55108642578125,1046.2364501953125,416.988037109375,1007.4544677734375,408.10833740234375C943.819580078125,393.539794921875,979.0826416015625,336.0184326171875,998.52294921875,306.13232421875C1027.615966796875,261.4007873535156,1069.1683349609375,212.61846923828125,1145.1578369140625,209.39425659179688C1217.323486328125,206.333740234375,1251.706787109375,218.7857666015625,1321.2032470703125,191.57211303710938C1419.90380859375,152.92388916015625,1572.834228515625,57.4339599609375,1676.292236328125,140.95220947265625C1728.455078125,183.05960083007812,1784.259521484375,281.09197998046875,1705.983642578125,322.804931640625C1620.335205078125,368.44482421875,1495.53125,344.9735107421875,1398.222412109375,349.04107666015625C1336.1314697265625,351.63592529296875,1302.992919921875,386.13482666015625,1250.1627197265625,402.40472412109375C1228.355712890625,409.11956787109375,1204.6546630859375,412.65631103515625,1181.00732421875,413.688232421875ZM1118.791015625,409.939697265625C1162.9466552734375,409.790771484375,1207.742431640625,410.7242431640625,1248.903076171875,397.8946533203125C1292.13134765625,384.42108154296875,1326.0567626953125,355.33001708984375,1372.680908203125,347.70477294921875C1416.6810302734375,340.507568359375,1463.4281005859375,347.2222900390625,1507.9307861328125,348.22296142578125C1601.155517578125,350.318603515625,1754.080322265625,343.39190673828125,1739.07421875,249.64309692382812C1730.81591796875,198.04989624023438,1673.853759765625,116.308349609375,1592.79833984375,112.1024169921875C1490.0885009765625,106.77215576171875,1405.2088623046875,163.20687866210938,1321.2032470703125,196.08013916015625C1269.465576171875,216.32510375976562,1237.8768310546875,214.34280395507812,1181.42041015625,213.00653076171875C1081.3555908203125,210.6361083984375,1045.084228515625,245.29238891601562,1005.1505126953125,305.519775390625C990.1715087890625,328.110107421875,958.655029296875,376.55255126953125,991.36865234375,396.31298828125C1016.2606201171875,411.34930419921875,1086.78955078125,410.05084228515625,1118.791015625,409.94384765625Z" fill="url(#fill-0-render-36)"/></g></g><g id="shape-d5580eb7-7b62-8069-8007-3bf508458fde"><defs><linearGradient id="fill-color-gradient-render-37-0" x1="0.5" y1="0" x2="0.5" y2="1" gradientTransform=""><stop offset="0" stop-color="#010b11" stop-opacity="1"/><stop offset="1" stop-color="#03f8c5" stop-opacity="1"/></linearGradient><pattern patternUnits="userSpaceOnUse" x="1356.2851099659788" y="137.25680143433055" width="333.33340710343055" height="183.17825981131796" patternTransform="matrix(1.000000, 0.000000, 0.000000, 1.000000, 0.000000, 0.000000)" id="fill-0-render-37"><g><rect width="333.33340710343055" height="183.17825981131796" style="fill: url(&quot;#fill-color-gradient-render-37-0&quot;);"/></g></pattern></defs><g class="fills" id="fills-d5580eb7-7b62-8069-8007-3bf508458fde"><path d="M1579.9169921875,319.98773193359375C1520.2318115234375,323.15948486328125,1445.052978515625,309.1488037109375,1393.081787109375,287.97454833984375C1370.2393798828125,278.66912841796875,1354.045654296875,270.8530578613281,1356.5380859375,249.54449462890625C1362.8544921875,195.56201171875,1500.405517578125,133.07955932617188,1570.150390625,137.47634887695312C1633.165771484375,141.44940185546875,1671.95654296875,190.31771850585938,1685.974853515625,230.3546142578125C1704.723876953125,283.9154968261719,1648.365966796875,316.3482666015625,1579.9169921875,319.98773193359375ZM1582.403564453125,316.3817138671875C1624.102783203125,313.72808837890625,1676.31005859375,294.53826904296875,1684.06005859375,261.9147033691406C1692.327392578125,227.10107421875,1649.83544921875,165.98843383789062,1605.864990234375,149.5067138671875C1532.406982421875,121.97213745117188,1410.79248046875,177.83840942382812,1375.0029296875,225.0516357421875C1350.003173828125,258.0318298339844,1371.017333984375,273.2192687988281,1410.531982421875,288.8765869140625C1457.8087158203125,307.61126708984375,1528.6248779296875,319.80517578125,1582.403564453125,316.3817138671875Z" fill="url(#fill-0-render-37)"/></g></g><g id="shape-d5580eb7-7b62-8069-8007-3bf508458fdf"><defs><linearGradient id="fill-color-gradient-render-38-0" x1="0.5" y1="0" x2="0.5" y2="1" gradientTransform=""><stop offset="0" stop-color="#010b11" stop-opacity="1"/><stop offset="1" stop-color="#03f8c5" stop-opacity="1"/></linearGradient><pattern patternUnits="userSpaceOnUse" x="1063.682719355526" y="258.367081982763" width="195.02720265416679" height="113.0040865937874" patternTransform="matrix(1.000000, 0.000000, 0.000000, 1.000000, 0.000000, 0.000000)" id="fill-0-render-38"><g><rect width="195.02720265416679" height="113.0040865937874" style="fill: url(&quot;#fill-color-gradient-render-38-0&quot;);"/></g></pattern></defs><g class="fills" id="fills-d5580eb7-7b62-8069-8007-3bf508458fdf"><path d="M1147.3154296875,371.3712158203125C1085.1048583984375,371.6375732421875,1045.039306640625,347.29150390625,1072.4688720703125,301.013916015625C1101.5350341796875,251.97366333007812,1165.8250732421875,250.16751098632812,1226.07275390625,270.8299560546875C1262.317138671875,283.2610168457031,1265.7789306640625,296.9212341308594,1249.133544921875,323.2811279296875C1230.3367919921875,353.04974365234375,1192.889404296875,371.17608642578125,1147.3154296875,371.3712158203125ZM1161.07958984375,366.85693359375C1198.6943359375,363.970458984375,1235.599853515625,339.98309326171875,1246.515380859375,314.183349609375C1256.051513671875,291.64556884765625,1243.469482421875,284.6769104003906,1218.17041015625,274.7401123046875C1163.3624267578125,253.21337890625,1099.84130859375,260.2470397949219,1076.3287353515625,305.60784912109375C1052.747314453125,351.09674072265625,1106.1009521484375,371.07745361328125,1161.07958984375,366.8590087890625Z" fill="url(#fill-0-render-38)"/></g></g><g id="shape-d5580eb7-7b62-8069-8007-3bf508458fe0"><defs><linearGradient id="fill-color-gradient-render-39-0" x1="0.5" y1="0" x2="0.5" y2="1" gradientTransform=""><stop offset="0" stop-color="#010b11" stop-opacity="1"/><stop offset="1" stop-color="#03f8c5" stop-opacity="1"/></linearGradient><pattern patternUnits="userSpaceOnUse" x="1461.9121379549274" y="176.29501214553562" width="166.98446395854353" height="106.24347003821129" patternTransform="matrix(1.000000, 0.000000, 0.000000, 1.000000, 0.000000, 0.000000)" id="fill-0-render-39"><g><rect width="166.98446395854353" height="106.24347003821129" style="fill: url(&quot;#fill-color-gradient-render-39-0&quot;);"/></g></pattern></defs><g class="fills" id="fills-d5580eb7-7b62-8069-8007-3bf508458fe0"><path d="M1572.433349609375,282.1450500488281C1540.734130859375,284.2846984863281,1506.255126953125,277.7083740234375,1482.410400390625,262.1559143066406C1419.427734375,221.07647705078125,1515.75537109375,156.29913330078125,1580.50048828125,182.25411987304688C1638.4619140625,205.48837280273438,1654.179931640625,276.62591552734375,1572.433349609375,282.1450500488281ZM1568.69921875,278.54742431640625C1665.370849609375,271.9417724609375,1618.5517578125,177.75872802734375,1542.82568359375,180.56961059570312C1504.1578369140625,182.00448608398438,1452.2193603515625,215.87200927734375,1473.47265625,245.18963623046875C1489.552734375,267.36871337890625,1535.3121337890625,280.8297119140625,1568.69921875,278.54742431640625Z" fill="url(#fill-0-render-39)"/></g></g></g></g></svg>